<svg width="150" height="150" viewBox="0 0 150 150" fill="none" xmlns="http://www.w3.org/2000/svg">
<path opacity="0.08" d="M131.1 85.3999C127.6 85.5999 128.4 91.4999 132.6 90.8999C135.6 89.9999 136.5 85.3999 131.1 85.3999Z" fill="black"/>
<path d="M50.1001 129.4L50.2001 139.9" stroke="black" stroke-width="0.7087" stroke-linecap="round" stroke-linejoin="round"/>
<path d="M59.5 76.6001C56.5 80.1001 49.1 87.6001 45.6 95.4001C43.9 99.1001 41 107 39.5 112.5C37.9 117.9 37.5 122.5 40.1 125.5C42.6 128.5 45.6 129.1 50.5 129.1C57.6 129.1 66.9 127.5 76.4 124.9C78.5 124.1 78 123.9 76.9 115C76.9 113.5 76.7 113.6 73.2 113.6L60 113.2H48.8" stroke="black" stroke-width="0.6783" stroke-linecap="round" stroke-linejoin="round"/>
<path d="M73.6 125.6L74.2 139.9M48 111.5C50.4 111.6 52.4 111.7 54.5 113.1L55.6 105.5" stroke="black" stroke-width="0.7087" stroke-linecap="round" stroke-linejoin="round"/>
<path d="M76.8999 115.4C79.8999 112.4 84.5999 107.7 88.4999 107.5C90.0999 107.4 94.9999 110.2 94.4999 112.1" stroke="black" stroke-width="0.75" stroke-linecap="round" stroke-linejoin="round"/>
<path d="M77.9 120.2C80.9 121 84.9 118 86.7 116C87.6 114.6 90.4 116.6 92.5 117.9C94.1 119 95 117.7 93.5 116C92 114.4 87.6 112.9 87.7 113.1C88.5 112.6 94.9 116 94 116.9C95 116.1 93.6 113.6 88.6 111.1C90.1 111.4 94.4 114 94.1 115.1C95.1 114.4 94.2 112.1 93.5 111.7C92.4 110.9 91.4 109.9 88.9 109M69.9 113.9C69.5 115.9 69.4 122 70.9 125.9" stroke="black" stroke-width="0.7087" stroke-linecap="round" stroke-linejoin="round"/>
<path d="M69.6001 126.6L69.9001 137.9" stroke="black" stroke-width="0.3543" stroke-miterlimit="10"/>
<path d="M70.8 135.9H72.6M69.4 107L71.4 106.9M54 97.1L71.9 95.9M75.4 77.4C73.5 80.1 68.4 81.5 65.6 80.6M64 77.6C67.6 79 73.1 77.9 75 74" stroke="black" stroke-width="0.7087" stroke-linecap="round" stroke-linejoin="round"/>
<path d="M62.0999 86.9999L60.3999 88.3999C59.3999 88.9999 59.3999 88.4999 59.3999 87.6999C58.8999 83.0999 59.5999 75.9999 60.3999 73.8999M75.3999 73.3999L76.8999 85.0999C77.3999 89.8999 79.8999 102 81.1999 111.1M74.0999 121.7C75.5999 122 75.0999 124 73.5999 123.6C72.6999 123.1 72.9999 121.6 74.0999 121.7Z" stroke="black" stroke-width="0.75" stroke-linecap="round" stroke-linejoin="round"/>
<path d="M67.6001 86.8999L68.6001 113.2" stroke="black" stroke-width="0.7087" stroke-linecap="round" stroke-linejoin="round" stroke-dasharray="0.71 1.42"/>
<path d="M68.3999 93H70.3999" stroke="black" stroke-width="0.7087" stroke-linecap="round" stroke-linejoin="round"/>
<path d="M53.6001 95.6001L69.0001 94.6001" stroke="black" stroke-width="0.4406" stroke-linecap="round" stroke-linejoin="round"/>
<path d="M67.6001 94.5999L69.4001 94.3999" stroke="black" stroke-width="0.7087" stroke-linecap="round" stroke-linejoin="round" stroke-dasharray="0.71 1.42"/>
<path d="M70.3999 94.3999H71.5999" stroke="black" stroke-width="0.4406" stroke-linecap="round" stroke-linejoin="round"/>
<path d="M78.4 94.1001L92.1 92.1001M84.9 132.9C82.5 133.6 77.7 134.6 74 134.5" stroke="black" stroke-width="0.7087" stroke-linecap="round" stroke-linejoin="round"/>
<path d="M82.8 119L86.7 139.9" stroke="black" stroke-width="0.75" stroke-linecap="round" stroke-linejoin="round"/>
<path d="M86.5 117.7L90.2 138.6" stroke="black" stroke-width="0.7087" stroke-linecap="round" stroke-linejoin="round" stroke-dasharray="0.71 1.42"/>
<path d="M86.5001 125.5C87.7001 125.6 87.5001 127.5 86.2001 127C85.6001 126.6 85.9001 125.4 86.5001 125.5Z" stroke="black" stroke-width="0.7087" stroke-linecap="round" stroke-linejoin="round"/>
<path d="M91.3999 88.7002C94.4999 100.9 99.8999 130.5 102.4 139.9" stroke="black" stroke-width="0.68" stroke-linecap="round" stroke-linejoin="round"/>
<path d="M78.6001 74.5C85.1001 76.4 89.6001 77.6 97.5001 85" stroke="black" stroke-width="0.7087" stroke-linecap="round" stroke-linejoin="round"/>
<path d="M93 66.5999C93.5 67.3999 94.7 68.8999 94.9 69.0999C95 68.4999 100.7 65.9999 101.5 66.3999L100.5 64.3999L94.1 66.8999L93 66.5999Z" stroke="black" stroke-width="0.6783" stroke-miterlimit="10" stroke-linecap="round" stroke-linejoin="round"/>
<path d="M94.2 66.6C91.5 63.5 88.5 54 91.1 53.9C92.6 54 94 56.1 95.1 57.4C96 58.5 96.2 60 95.9 62.9C96.1 63.6 96.1 63.9 96.1 63.9C95.4 61.6 96.1 57.7 97 56.9C98.4 57.5 99.6 55 100.2 53.5" stroke="black" stroke-width="0.75" stroke-linecap="round" stroke-linejoin="round"/>
<path d="M97 55.9998L94 55.0998C93 53.4998 95.5 49.3998 96.4 49.4998L96.2 48.9998C96.4 42.4998 96.9 41.3998 95.5 42.0998C94.5 42.9998 94 47.4998 92.5 53.9998L93.6 54.9998H94" stroke="black" stroke-width="0.75" stroke-linecap="round" stroke-linejoin="round"/>
<path d="M99 50.0002C97 49.4002 94.4 54.6002 95.6 55.6002C97.1 57.0002 96.6 52.9002 98.2 51.5002C99.8 50.1002 102 49.6002 102.2 51.1002C102.9 54.0002 101.1 62.1002 99.6 64.4002L99.3 64.9002M92.2 58.0002C93 59.0002 94.5 59.9002 95.6 59.4002" stroke="black" stroke-width="0.75" stroke-linecap="round" stroke-linejoin="round"/>
<path d="M94.8999 75.6001C96.5999 83.0001 101.9 99.6001 101.7 99.6001" stroke="black" stroke-width="0.7087" stroke-linecap="round" stroke-linejoin="round"/>
<path d="M95 69.0999C99.7 67.4999 101.5 65.9999 102.4 66.3999C105.4 66.9999 107.5 72.9999 109.1 75.9999C114 86.9999 119.9 97.5999 119.7 107.5C119.1 113 115.4 114.6 110.6 114.6C107.7 114.6 103.5 113.6 101.4 113C99.4 112.4 96.4 110.9 96.4 110.6" stroke="black" stroke-width="0.75" stroke-linecap="round" stroke-linejoin="round"/>
<path d="M95.3999 75.5999L106 70.8999" stroke="black" stroke-width="0.4406" stroke-linecap="round" stroke-linejoin="round"/>
<path d="M99.4001 100.4C98.2001 97.0002 98.7001 94.0002 99.6001 91.7002" stroke="black" stroke-width="0.7087" stroke-linecap="round" stroke-linejoin="round"/>
<path d="M76.1 71.0999L76.5 69.8999L75 68.8999L75.1 66.9999L75.6 66.8999M75.9 71.8999L77.6 72.4999L78.1 73.9999L76.7 73.3999L75.9 71.8999Z" stroke="black" stroke-width="0.75" stroke-linecap="round" stroke-linejoin="round"/>
<path d="M71.3999 67.8999L72.5999 69.5999C73.8999 71.5999 75.0999 72.4999 75.0999 73.9999" stroke="black" stroke-width="0.7087" stroke-linecap="round" stroke-linejoin="round"/>
<path d="M75 71.6001C77.7 72.6001 79.1 74.4001 83.6 81.6001C84 82.6001 84.2 82.4001 82.6 82.2001C78.7 82.1001 77.6 83.4001 77 85.9001" stroke="black" stroke-width="0.75" stroke-linecap="round" stroke-linejoin="round"/>
<path d="M78.8999 83.1001L81.3999 93.5001" stroke="black" stroke-width="0.7087" stroke-linecap="round" stroke-linejoin="round" stroke-dasharray="0.71 1.42"/>
<path d="M80.0001 90.5998C81.0001 90.8998 80.6001 92.5998 79.4001 91.8998C78.7001 91.4998 79.0001 90.3998 80.0001 90.5998Z" stroke="black" stroke-width="0.7087" stroke-linecap="round" stroke-linejoin="round"/>
<path d="M81.5 92.3999L91.1 90.8999" stroke="black" stroke-width="0.7087" stroke-linecap="round" stroke-linejoin="round" stroke-dasharray="0.71 1.42"/>
<path d="M81.8999 94.3999L84.4999 108" stroke="black" stroke-width="0.7087" stroke-linecap="round" stroke-linejoin="round" stroke-dasharray="0.71 1.42"/>
<path d="M82.6 104.6C83.6 104.6 83.5 106.6 82.1 106.2C81.5 105.9 81.6 104.4 82.6 104.6Z" stroke="black" stroke-width="0.7087" stroke-linecap="round" stroke-linejoin="round"/>
<path d="M92 80.8999C91.5 80.9999 90.9 83.3999 91 84.3999" stroke="black" stroke-width="0.6783" stroke-linecap="round" stroke-linejoin="round" stroke-dasharray="1.04 1.45"/>
<path d="M71.8 45.9001C73.5 45.6001 74 47.5001 73 47.4001M66.5 44.9001C67.5 43.9001 70.2 44.0001 70.9 45.5001" stroke="black" stroke-width="0.75" stroke-linecap="round" stroke-linejoin="round"/>
<path d="M63 45.4001C63.5 44.5001 65.1 44.1001 65.9 44.6001L63 45.4001Z" stroke="black" stroke-width="0.68" stroke-linecap="round" stroke-linejoin="round"/>
<path d="M59.8999 46.9L61.0999 45.9C61.8999 45.5 62.5999 45.6 63.0999 45.6L59.8999 46.9Z" stroke="black" stroke-width="0.75" stroke-linecap="round" stroke-linejoin="round"/>
<path d="M57 49.9999C56.6 49.0999 57.7 47.5999 58.9 46.9999L59.9 46.8999M55.6 54.0999C55.4 53.3999 55.6 52.3999 56.5 51.8999L57 50.3999M55.5 58.0999C54.5 57.4999 54.5 55.4999 55.9 54.5999L55.5 58.0999Z" stroke="black" stroke-width="0.7087" stroke-linecap="round" stroke-linejoin="round"/>
<path d="M55.5 61.4999C55.5 60.6999 55.6 58.3999 57 57.8999L55.5 61.4999Z" stroke="black" stroke-width="0.75" stroke-linecap="round" stroke-linejoin="round"/>
<path d="M64.4999 63.6C62.9999 65 60.0999 63.4 60.5999 60.4C60.8999 58.4 63.0999 57.5 63.8999 59M66.0999 55C65.8999 53.5 61.3999 55.4 61.3999 57.1C62.9999 56.5 65.0999 55.9 65.0999 54.6" stroke="black" stroke-width="0.7087" stroke-linecap="round" stroke-linejoin="round"/>
<path d="M61.4 55.3998C59.6 54.9998 58.1 57.0998 58 58.5998C58.4 58.3998 60 58.4998 61.5 56.5998L61.4 55.3998Z" stroke="black" stroke-width="0.68" stroke-linecap="round" stroke-linejoin="round"/>
<path d="M60 57.1001C57.9 57.6001 57.7 59.2001 58.4 60.9001M60.4 60.0001C59.4 60.0001 58 61.1001 58 62.6001L61.1 64.5001L60.4 60.0001Z" stroke="black" stroke-width="0.7087" stroke-linecap="round" stroke-linejoin="round"/>
<path d="M57.0001 68.6C56.9001 68.5 56.5001 66.9 57.0001 65.9L58.1001 64L59.4001 65.9L57.0001 68.6ZM57.0001 68.6L56.6001 70.5V73C57.4001 72.2 58.6001 71.9 58.9001 71.1L59.4001 69.1L58.6001 66.9L57.0001 68.6Z" stroke="black" stroke-width="0.68" stroke-linecap="round" stroke-linejoin="round"/>
<path d="M56.6001 72.6001L55.9001 74.1001C55.4001 75.5001 55.6001 76.1001 55.6001 76.9001L57.6001 77.4001L59.6001 75.9001L59.4001 74.1001L58.4001 72.1001C57.7001 72.6001 56.6001 72.1001 56.6001 72.6001Z" stroke="black" stroke-width="0.68" stroke-linecap="round" stroke-linejoin="round"/>
<path d="M55.9001 76.0999C55.1001 76.5999 55.4001 79.9999 55.9001 80.0999L59.0001 77.4999L59.6001 75.8999C58.7001 76.5999 56.7001 76.8999 55.9001 76.0999Z" stroke="black" stroke-width="0.68" stroke-linecap="round" stroke-linejoin="round"/>
<path d="M66.0999 50.9C64.4999 49.6 59.9999 50.5 59.8999 53.5C61.8999 53 62.9999 51.9 64.0999 52.1C65.8999 52.4 66.8999 51.7 66.0999 50.9Z" stroke="black" stroke-width="0.75" stroke-linecap="round" stroke-linejoin="round"/>
<path d="M64 47.4002C61.5 46.6002 58.4 48.1002 58 51.0002C59 50.7002 60.6 50.0002 61.5 50.0002C63.4 49.6002 64 49.6002 65 49.6002C66.6 50.0002 67.9 49.4002 67.5 48.9002C67.1 48.4002 65.5 47.6002 64 47.4002Z" stroke="black" stroke-width="0.68" stroke-linecap="round" stroke-linejoin="round"/>
<path d="M60.9001 58.9999C59.4001 58.8999 59.0001 60.0999 59.1001 62.5999L61.1001 63.9999C62.4001 64.9999 63.7001 64.5999 62.5001 65.8999C63.4001 66.5999 63.6001 68.3999 62.9001 68.3999C64.0001 68.8999 63.6001 71.3999 63.4001 72.3999C64.1001 72.9999 63.7001 74.9999 63.9001 75.8999C64.5001 76.5999 64.6001 78.8999 63.4001 77.9999C64.6001 78.4999 64.9001 80.0999 64.9001 80.5999C65.9001 83.3999 66.4001 85.8999 65.1001 84.3999C64.4001 81.9999 62.9001 78.5999 63.1001 75.9999L61.4001 72.8999L60.1001 69.9999L59.0001 66.5999L59.1001 62.3999M64.4001 44.8999H66.1001C67.5001 44.8999 69.4001 46.3999 69.6001 47.5999C68.6001 47.3999 67.5001 46.0999 66.4001 46.0999L64.4001 44.8999ZM57.0001 58.9999L55.6001 59.3999C54.5001 61.0999 56.6001 61.9999 56.4001 63.4999C57.1001 62.8999 58.1001 61.5999 58.0001 60.6999L57.0001 58.9999Z" stroke="black" stroke-width="0.7087" stroke-linecap="round" stroke-linejoin="round"/>
<path d="M55.5 63.1001C55 63.5001 54.4 65.0001 54.9 65.5001L55.9 66.9001L55.6 68.4001C56.5 67.5001 56.9 64.4001 55.5 63.1001Z" stroke="black" stroke-width="0.7087" stroke-linecap="round" stroke-linejoin="round"/>
<path d="M54.6 66.1001C53 68.0001 55.5 69.9001 55.6 70.0001L55.9 68.6001C56.4 67.6001 55 66.6001 54.6 66.1001Z" stroke="black" stroke-width="0.75" stroke-linecap="round" stroke-linejoin="round"/>
<path d="M54.4001 67.6001C53.1001 69.4001 54.6001 70.9001 54.9001 71.5001L55.5001 70.0001C55.9001 69.0001 55.0001 68.5001 54.4001 67.6001Z" stroke="black" stroke-width="0.75" stroke-linecap="round" stroke-linejoin="round"/>
<path d="M53.6001 70.6001C52.6001 72.5001 53.7001 73.4001 53.9001 74.1001C55.1001 74.0001 55.1001 70.9001 53.6001 70.6001Z" stroke="black" stroke-width="0.75" stroke-linecap="round" stroke-linejoin="round"/>
<path d="M52.7 73.5L53 75L53.9 76C54.9 75.4 54.5 73.5 52.7 73.5Z" stroke="black" stroke-width="0.75" stroke-linecap="round" stroke-linejoin="round"/>
<path d="M52.5001 75.3999L52.1001 76.5999L53.0001 77.9999C54.0001 77.4999 54.1001 75.9999 52.5001 75.3999Z" stroke="black" stroke-width="0.75" stroke-linecap="round" stroke-linejoin="round"/>
<path d="M51.9 77.5C51 78.5 52 80 52.5 80C53.9 79 52.9 78 51.9 77.5Z" stroke="black" stroke-width="0.75" stroke-linecap="round" stroke-linejoin="round"/>
<path d="M51.5 80.5C50.5 82.1 52 83 52.5 83C52.6 82.5 53.5 81 51.5 80.5Z" stroke="black" stroke-width="0.75" stroke-linecap="round" stroke-linejoin="round"/>
<path d="M58.4999 49C56.3999 49.9 57.8999 52 59.4999 50.6M51.0999 83.5C50.5999 84.9 50.9999 86.6 51.4999 86.1L52.6999 84.6L51.0999 83.5ZM56.4999 56C55.9999 54.1 56.4999 52.9 58.3999 51.9L56.4999 56Z" stroke="black" stroke-width="0.75" stroke-linecap="round" stroke-linejoin="round"/>
<path d="M58.0001 54.5C57.1001 54.6 56.1001 56.5 56.9001 57.7L58.6001 56.1L58.0001 54.5Z" stroke="black" stroke-width="0.7087" stroke-linecap="round" stroke-linejoin="round"/>
<path d="M59.1001 52L57.6001 53.5V55.6C59.4001 54.6 59.5001 54.6 59.1001 52Z" stroke="black" stroke-width="0.75" stroke-linecap="round" stroke-linejoin="round"/>
<path d="M60.6 50.8999C59 51.4999 58.6 52.9999 59.1 53.8999L60.5 52.9999L60.6 50.8999Z" stroke="black" stroke-width="0.68" stroke-linecap="round" stroke-linejoin="round"/>
<path d="M63.0001 50.6001C61.1001 50.6001 60.0001 52.1001 60.4001 53.4001C61.5001 53.1001 62.0001 53.0001 62.4001 52.5001L63.0001 50.6001Z" stroke="black" stroke-width="0.7087" stroke-linecap="round" stroke-linejoin="round"/>
<path d="M64.6 50.6001C62.7 50.6001 62 52.1001 62 52.5001H64L64.6 50.6001Z" stroke="black" stroke-width="0.68" stroke-linecap="round" stroke-linejoin="round"/>
<path d="M66.0999 50.8998C64.5999 50.5998 63.9999 51.6998 63.8999 52.0998C65.0999 52.4998 66.8999 52.0998 66.0999 50.8998Z" stroke="black" stroke-width="0.75" stroke-linecap="round" stroke-linejoin="round"/>
<path d="M73.4 47.6001C75.1 48.5001 78 55.6001 77.9 59.5001C77.6 65.0001 74.6 67.6001 69 67.9001C70 69.5001 72.1 69.5001 72.1 69.6001M73.1 52.1001C73.9 51.5001 75.4 51.4001 75.4 51.9001" stroke="black" stroke-width="0.7087" stroke-linecap="round" stroke-linejoin="round"/>
<path d="M67.8999 54.0001C68.4999 52.9001 70.0999 52.1001 70.9999 52.5001C71.0999 53.0001 70.8999 53.1001 70.3999 53.1001C69.8999 53.1001 68.9999 53.5001 68.5999 54.1001C68.3999 54.5001 67.8999 54.4001 67.8999 54.0001ZM72.6999 59.6001C73.5999 60.6001 75.0999 60.6001 75.3999 60.0001C75.8999 59.4001 76.0999 59.6001 75.8999 60.1001C75.0999 61.6001 71.9999 60.6001 72.4999 59.9001L72.6999 59.6001ZM69.9999 54.9001C69.9999 53.9001 71.4999 54.1001 71.0999 55.6001C70.5999 56.1001 69.8999 55.5001 69.9999 54.9001ZM74.8999 53.9001C74.4999 52.9001 76.0999 52.6001 75.5999 54.1001C75.3999 54.5001 74.8999 54.4001 74.8999 53.9001Z" fill="black"/>
<path d="M73.6001 53.8999L76.0001 56.3999C76.4001 57.3999 74.1001 57.9999 75.1001 57.8999" stroke="black" stroke-width="0.75" stroke-linecap="round" stroke-linejoin="round"/>
<path d="M45.9999 47.9999C46.5999 45.9999 45.5999 41.8999 39.9999 41.8999C36.8999 41.8999 34.4999 45.4999 34.5999 49.0999C34.6999 52.6999 38.4999 54.5999 40.8999 54.5999C42.8999 54.5999 44.1999 53.5999 44.8999 52.3999L51.0999 53.8999C51.4999 53.8999 45.9999 49.0999 45.9999 47.9999Z" stroke="black" stroke-width="0.7087" stroke-linecap="round" stroke-linejoin="round"/>
<path d="M103.9 43.4L105.6 49.6L119 45.6L117.5 39.5L103.9 43.4Z" stroke="black" stroke-width="0.75" stroke-linecap="round" stroke-linejoin="round"/>
<path d="M106.5 43.9001L107.1 43.6001L115.9 41.1001L116.1 41.5001L117.4 42.0001L117.9 43.6001C117.4 43.9001 116.9 44.6001 117.1 45.0001L107.6 47.6001C107.5 47.1001 107.1 46.6001 105.5 46.6001L105.1 45.0001C106 44.9001 106.5 44.4001 106.5 43.9001Z" stroke="black" stroke-width="0.75" stroke-linecap="round" stroke-linejoin="round"/>
<path d="M36 47.3168L37.0132 51L45 48.6238L44.106 45L36 47.3168Z" stroke="black" stroke-width="0.35" stroke-linecap="round"/>
<path d="M37.7656 47.7231L38.0937 47.5385L42.9063 46L43.0156 46.2462L43.7266 46.5538L44 47.5385C43.7266 47.7231 43.4531 48.1538 43.5625 48.4L38.3672 50C38.3125 49.6923 38.0938 49.3846 37.2188 49.3846L37 48.4C37.4922 48.3385 37.7656 48.0308 37.7656 47.7231Z" stroke="black" stroke-width="0.35" stroke-linecap="round"/>
<path d="M106.5 9C106.5 7 109.4 7 109 9C109 10.6 106.5 10.6 106.5 9Z" stroke="black" stroke-width="0.75" stroke-linecap="round" stroke-linejoin="round"/>
<path d="M84.1001 27.6699C84.8015 27.6699 85.3701 27.1013 85.3701 26.3999C85.3701 25.6985 84.8015 25.1299 84.1001 25.1299C83.3987 25.1299 82.8301 25.6985 82.8301 26.3999C82.8301 27.1013 83.3987 27.6699 84.1001 27.6699Z" stroke="black" stroke-width="0.75" stroke-linecap="round" stroke-linejoin="round"/>
<path d="M116.9 34.9998C117 33.4998 119.5 33.0998 119.5 35.0998C119.5 36.8998 116.7 36.8998 116.9 34.9998Z" fill="black"/>
<path d="M48.5 90.3999C50.5 91.1999 54.4 97.5999 54.9 103.4" stroke="black" stroke-width="0.7087" stroke-linecap="round" stroke-linejoin="round"/>
<path d="M62.0001 86.6001C65.0001 86.0001 67.6001 85.9001 69.5001 88.1001C71.6001 90.6001 71.6001 92.1001 71.6001 94.6001L73.0001 113.5M63.0001 85.6001L64.5001 90.6001C65.5001 94.0001 62.9001 91.5001 62.6001 88.9001L61.4001 85.5001L61.0001 80.0001L60.1001 76.9001L60.9001 74.6001L61.6001 76.6001L63.0001 78.0001L63.6001 81.1001L63.0001 85.6001Z" stroke="black" stroke-width="0.75" stroke-linecap="round" stroke-linejoin="round"/>
<path d="M68.3999 81L70.9999 83.9C71.3999 84.4 71.3999 83.9 72.4999 80" stroke="black" stroke-width="0.7087" stroke-linecap="round" stroke-linejoin="round"/>
<path d="M60.5 67.1L59.4 65L59 66.6L59.4 69.1L60.9 71.6L62 73V70.4L60.5 67.1Z" stroke="black" stroke-width="0.68" stroke-linecap="round" stroke-linejoin="round"/>
<path d="M61.1 67.1L60.1 66L60 67.5L60.5 69.4L62.1 72L63.6 73.4C64 72 63.6 71.1 63.6 71.1L61.1 67.1Z" stroke="black" stroke-width="0.68" stroke-linecap="round" stroke-linejoin="round"/>
<path d="M62.4001 65.4999L60.4001 63.3999L60.1001 64.5999L61.5001 66.5999" stroke="black" stroke-width="0.68" stroke-linecap="round" stroke-linejoin="round"/>
<path d="M62.4001 65L61.5001 66.6L62.5001 68.1L63.5001 68L62.4001 65ZM60.6001 71.4L60.1001 73.1L60.6001 74.5L62.1001 76.4H64.4001L62.6001 74L60.6001 71.4Z" stroke="black" stroke-width="0.68" stroke-linecap="round" stroke-linejoin="round"/>
<path d="M63.0999 74L62.1999 74.6L62.4999 76L64.3999 76.9L64.0999 75.4L63.0999 74ZM59.9999 76L59.8999 77.6L60.4999 78.9L62.0999 80L62.4999 78.1L59.9999 76Z" stroke="black" stroke-width="0.68" stroke-linecap="round" stroke-linejoin="round"/>
<path d="M60.3999 78.3999V79.8999L61.0999 80.9999L62.3999 81.5999V79.9999L60.3999 78.3999Z" stroke="black" stroke-width="0.68" stroke-linecap="round" stroke-linejoin="round"/>
<path d="M60.9 80.6001L60.7 81.6001L61 82.4001L62.5 83.0001V81.6001L60.9 80.6001Z" stroke="black" stroke-width="0.68" stroke-linecap="round" stroke-linejoin="round"/>
<path d="M61.1001 82.8999V83.8999L61.5001 84.4999L62.7001 84.9999L62.6001 83.8999L61.1001 82.8999Z" stroke="black" stroke-width="0.68" stroke-linecap="round" stroke-linejoin="round"/>
<path d="M61.3999 84.6001L61.4999 85.6001L61.9999 86.5001L63.1999 86.9001L62.9999 85.6001L61.3999 84.6001Z" stroke="black" stroke-width="0.68" stroke-linecap="round" stroke-linejoin="round"/>
<path d="M61.8999 87L62.3999 88.5L62.9999 88.9L63.9999 89V87.9L61.8999 87Z" stroke="black" stroke-width="0.68" stroke-linecap="round" stroke-linejoin="round"/>
<path d="M62.3999 89L62.6999 89.9L63.4999 90.5H64.3999L63.9999 89.5L62.3999 89Z" stroke="black" stroke-width="0.68" stroke-linecap="round" stroke-linejoin="round"/>
<path d="M63 89.9999V90.8999L64.1 92.0999L64.5 91.6999L64.1 90.4999L63 89.9999ZM60.9 47.3999L60 48.9999L62 48.8999L63 47.4999L60.9 47.3999Z" stroke="black" stroke-width="0.68" stroke-linecap="round" stroke-linejoin="round"/>
<path d="M63.0001 47.5L61.6001 49H63.6001L64.9001 47.6L63.0001 47.5Z" stroke="black" stroke-width="0.68" stroke-linecap="round" stroke-linejoin="round"/>
<path d="M64.4001 47.6L63.6001 48.9L65.0001 49L67.1001 48.4L64.4001 47.6ZM64.0001 45L63.1001 46H65.0001L65.5001 45H64.0001Z" stroke="black" stroke-width="0.68" stroke-linecap="round" stroke-linejoin="round"/>
<path d="M64.9999 45L64.3999 46L66.0999 46.4L67.0999 45.6L64.9999 45Z" stroke="black" stroke-width="0.68" stroke-linecap="round" stroke-linejoin="round"/>
<path d="M66.3999 45.3999L65.8999 46.0999L67.3999 46.5999L68.3999 46.3999L66.3999 45.3999Z" stroke="black" stroke-width="0.68" stroke-linecap="round" stroke-linejoin="round"/>
<path d="M68 46.1001L67.5 46.5001L68.6 47.5001H69.6L68 46.1001Z" stroke="black" stroke-width="0.68" stroke-linecap="round" stroke-linejoin="round"/>
<path fill-rule="evenodd" clip-rule="evenodd" d="M70.2 45.1001L70.7 46.6001L72.1 47.2001V46.0001L70.2 45.1001ZM72.1 46.5001L72.6 47.5001L73.6 47.6001L73.4 47.0001L72.1 46.5001Z" fill="black"/>
<path d="M72.3999 67.7001L73.5999 67.6001L74.3999 69.9001L75.9999 71.0001L76.5999 72.5001" stroke="black" stroke-width="0.7087" stroke-linecap="round" stroke-linejoin="round"/>
<path d="M131.995 21C134.295 24.7 129.795 26 131.095 28.2" stroke="#010101" stroke-width="0.75" stroke-linecap="round" stroke-linejoin="round"/>
<path d="M129.595 28.0002C128.195 26.0002 130.695 25.5002 129.595 23.7002M133.595 28.1002C132.195 26.6002 134.595 25.2002 133.795 25.2002" stroke="#010101" stroke-width="0.75" stroke-linecap="round" stroke-linejoin="round"/>
<path d="M139.695 33.1002C140.295 31.1002 126.695 29.5002 123.295 32.1002C122.695 32.5002 123.195 33.5002 123.195 33.5002C123.295 37.6002 125.095 40.5002 127.595 41.6002V42.8002C129.395 43.5002 132.595 43.5002 134.595 42.8002V41.7002C135.695 41.1002 136.295 40.3002 137.095 39.5002C138.395 39.3002 143.095 39.1002 143.595 35.7002C143.695 33.7002 142.595 32.7002 140.295 33.2002L139.795 34.5002" stroke="#010101" stroke-width="0.75" stroke-linecap="round" stroke-linejoin="round"/>
<path d="M124.095 32.7002C125.695 34.5002 135.795 36.2002 139.595 33.5002" stroke="#010101" stroke-width="0.75" stroke-linecap="round" stroke-linejoin="round"/>
<path d="M124.795 33.6003C127.195 31.6003 135.095 31.6003 138.295 33.3003" stroke="#010101" stroke-width="0.75" stroke-linecap="round" stroke-linejoin="round"/>
<path d="M139.695 35.1C140.695 34 143.095 35 141.295 37.1C140.195 38 139.095 38.1 138.295 38.5" stroke="#010101" stroke-width="0.75" stroke-linecap="round" stroke-linejoin="round"/>
<path d="M139.095 35.7002C135.595 38.0002 127.895 37.8002 123.795 35.8002" stroke="#010101" stroke-width="0.75" stroke-linecap="round" stroke-linejoin="round"/>
<path d="M124.095 36.5C128.595 39.2 135.595 39 138.595 37.1" stroke="#010101" stroke-width="0.75" stroke-linecap="round" stroke-linejoin="round"/>
<path d="M124.795 37.7001L126.095 37.1001L126.695 38.5001L128.095 37.3001L128.595 38.7001L129.895 37.6001L130.695 38.8001L131.595 37.7001L132.595 38.7001L133.795 37.6001L134.595 38.7001L135.195 37.5001L136.195 38.3001L136.795 37.1001L138.095 38.1001" stroke="#010101" stroke-width="0.75" stroke-linecap="round" stroke-linejoin="round"/>
<path d="M126.095 38.5C128.095 39.1 133.395 40.1 137.295 38.7" stroke="black" stroke-width="0.6076"/>
<path d="M109.09 13.0444L112.59 25.9444C112.69 26.5444 113.39 27.0444 114.19 26.9444L127.29 23.3444C128.09 23.2444 128.29 22.4444 128.09 21.7444L124.79 9.04444C124.59 8.34444 123.79 7.84444 123.09 8.04444L109.89 11.4444C109.29 11.7444 108.79 12.3444 109.09 13.0444Z" stroke="#010101" stroke-width="0.7037" stroke-miterlimit="10"/>
<path d="M111.08 12.884L114.56 12.074L115.37 15.374L111.9 16.184L111.08 12.884ZM112.59 15.494L114.58 15.024L114.09 12.944L112.11 13.414L112.59 15.494ZM114.15 13.434L112.58 13.804L112.94 15.284L114.51 14.914L114.15 13.434ZM113.22 17.014H112.35L112.6 18.054L113.2 17.914L113.32 18.384L113.79 18.274L114.17 19.834L114.64 19.724L114.52 19.254L115.12 19.104L115.37 20.144L115.96 20.004L116.75 19.814L116.63 19.344L115.59 19.594L115.34 18.564L114.74 18.704L114.48 17.664L114.96 17.554L115.07 18.024L115.55 17.914L115.43 17.444L116.59 17.164L116.47 16.694L114.91 17.074L115.16 18.114L114.68 18.224L114.57 17.744L114.09 17.864L113.95 17.264L113.36 17.414L113.22 17.014ZM113.74 20.164L113.26 20.284L113.38 20.754L113.85 20.644L113.74 20.164ZM117.58 19.204L117.46 18.734L118.9 18.384L119.16 19.424L118.24 19.644L118.93 22.454L119.4 22.344L119.26 21.754L119.73 21.634L119.49 20.674L119.96 20.564L119.72 19.604L119.24 19.714L119 18.754L119.81 18.564L119.67 17.974L119.07 18.114L118.94 17.604L118.34 17.744L118.23 17.274L117.63 17.414L117.85 18.304L117.38 18.414L117.44 18.654L117.58 19.204ZM118.54 19.944L118.66 20.414L119.13 20.304L119.02 19.834L118.54 19.944ZM113.64 21.434L117.11 20.614L117.93 24.094L114.45 24.914L113.64 21.434ZM115.14 24.044L117.18 23.554L116.69 21.504L114.65 21.994L115.14 24.044ZM118.31 23.254L118.45 23.854L119.05 23.704L118.91 23.104L118.31 23.254ZM119.37 22.474L120.33 22.234L120.19 21.644L119.23 21.884L119.37 22.474ZM119.83 23.394L120.71 23.174L120.59 22.704L119.71 22.914L119.83 23.394ZM120.95 20.984L121.06 21.454L121.66 21.314L121.54 20.844L120.95 20.984ZM121.66 21.324L121.77 21.794L122.37 21.654L122.26 21.184L121.66 21.324ZM121.7 22.444L121.84 23.044L122.56 22.874L122.42 22.274L121.7 22.444ZM119.75 18.194L120.62 17.984L120.48 17.394L119.6 17.604L119.75 18.194ZM117.82 12.514L117.7 12.044L118.06 11.954L117.81 10.914L117.22 11.064L117.33 11.534L116.86 11.644L116.97 12.114L116.5 12.234L116.29 11.344L115.69 11.484L115.83 12.084L115.47 12.164L115.68 13.044L116.04 12.964L116.18 13.554L116.89 13.384L117.24 14.824L117.83 14.684L117.82 12.514ZM117.06 12.804L116.46 12.944L116.58 13.544L117.17 13.404L117.06 12.804ZM118.66 11.764L118.75 12.144L119.35 11.994L119.26 11.624L118.66 11.764ZM118.37 10.584L118.85 10.474L118.71 9.87402L118.23 9.98402L118.37 10.584ZM118.51 13.814L118.26 12.774L117.67 12.914L117.81 13.514L117.21 13.654L117.57 15.084L116.97 15.224L117.09 15.704L117.69 15.564L117.55 14.964L118.15 14.824L118.51 13.814ZM119.08 14.054L118.94 13.464L118.35 13.604L118.49 14.194L119.08 14.054ZM114.8 16.684L117.11 16.134L116.99 15.654L114.57 16.234L114.8 16.684ZM120.04 10.924L120.85 14.224L123.79 13.514L123.09 10.394L120.04 10.924ZM122.94 13.034L121.2 13.454L120.78 11.714L122.52 11.294L122.94 13.034ZM119.18 16.304L120.14 16.064L120 15.474L119.04 15.704L119.18 16.304ZM121.45 15.174L121.7 16.214L122.29 16.064L122.05 15.024L121.93 14.554L120.5 14.904L120.64 15.494L121.35 15.324L121.45 15.174ZM122.42 15.154L123.58 14.874L123.44 14.274L122.28 14.564L122.42 15.154ZM119.13 15.094L119.27 15.684L119.87 15.544L119.73 14.954L119.13 15.094ZM117.9 16.044L117.3 16.184L117.44 16.784L118.04 16.634L117.9 16.044ZM118.49 15.904L117.94 16.044L118.05 16.514L118.93 16.304L118.49 15.904ZM119.77 16.424L119.15 16.574L119.36 17.454L120.12 17.264L119.77 16.424ZM120.81 17.204L120.69 16.724L120.09 16.874L120.27 17.614L121.11 17.414L120.81 17.204ZM119.5 17.884L119.54 18.064L119.19 18.154L119.33 18.744L120.29 18.514L120.1 17.764L119.5 17.884ZM120.73 18.054L120.88 18.644L121.47 18.504L121.33 17.904L120.73 18.054ZM120.96 18.994L121.14 19.734L121.79 19.584L121.42 18.094L120.9 18.224L120.96 18.994ZM122.93 20.944L124.03 20.684L124.17 21.274L125.21 21.024L125.06 20.424L126.02 20.194L125.91 19.714L125.44 19.834L125.17 18.744L125.64 18.624L125.5 18.034L125.02 18.144L124.91 17.674L124.31 17.814L124.55 18.774L123.96 18.914L124.33 20.414L123.61 20.584L123.47 19.994L122.51 20.224L122.88 21.714L122 21.924L122.14 22.524L123.02 22.314L122.93 20.944ZM123.51 19.464L123.99 19.354L123.87 18.884L123.4 18.994L123.51 19.464ZM122.67 18.964L123.35 18.794L123.11 17.834L122.43 18.004L122.67 18.964ZM124.84 21.534L125.04 22.354L126.13 22.094L126.02 21.614L124.65 21.294L124.84 21.534ZM124.01 15.144L124.55 15.014L124.44 14.544L123.89 14.674L124.01 15.144ZM123.01 18.434L124.18 18.154L123.91 17.064L122.75 17.344L123.01 18.434ZM122.35 16.704L122.72 18.194L123.88 17.914L123.64 16.954L124.36 16.784L124.05 15.524L123.45 15.664L123.57 16.144L122.25 16.454L122.35 16.704ZM123.03 15.864L123.51 15.754L123.39 15.284L122.91 15.394L123.03 15.864Z" fill="black"/>
<path d="M120.1 54.2393L121.3 55.8393" stroke="#010101" stroke-width="0.75" stroke-linecap="round" stroke-linejoin="round"/>
<path d="M118.1 56.8394L119.7 58.3394" stroke="#010101" stroke-width="0.75" stroke-linecap="round" stroke-linejoin="round"/>
<path d="M116.3 60.1392L118.1 60.9392" stroke="#010101" stroke-width="0.75" stroke-linecap="round" stroke-linejoin="round"/>
<path d="M115 63.7393H117.1M130.6 71.6393L131.7 73.1393M132.6 69.1393L134.2 70.4393" stroke="#010101" stroke-width="0.75" stroke-linecap="round" stroke-linejoin="round"/>
<path d="M134.2 66.6392L136.1 67.2392" stroke="#010101" stroke-width="0.75" stroke-linecap="round" stroke-linejoin="round"/>
<path d="M135.2 63.6392H137.2" stroke="#010101" stroke-width="0.75" stroke-linecap="round" stroke-linejoin="round"/>
<path d="M126.6 53.2394C125 55.3394 117.7 67.8394 117 69.1394C116.2 70.4394 117.1 71.3394 117.6 71.4394L124 74.4394C125 74.9394 126 75.1394 126.5 74.1394L135.2 59.1394C135.7 58.2394 135.6 57.1394 134.6 56.7394L128.1 53.1394C127.5 52.9394 126.7 52.9394 126.6 53.2394Z" stroke="#010101" stroke-width="0.75" stroke-linecap="round" stroke-linejoin="round"/>
<path d="M120.7 71.2392L120.5 71.6392L121 72.3392H121.7L122.1 71.6392L121.3 71.1392L120.7 71.2392Z" stroke="#010101" stroke-width="0.75" stroke-linecap="round" stroke-linejoin="round"/>
<path d="M126.5 54.9393L118.7 68.4393C118.6 68.7393 118.7 69.1393 119.1 69.1393L125.2 72.2393C125.5 72.4393 126 72.3393 126.1 72.1393L133.7 59.3393C134 58.7393 134 58.4393 133.5 58.2393L127.2 54.7393L126.5 54.9393Z" stroke="#010101" stroke-width="0.75" stroke-linecap="round" stroke-linejoin="round"/>
<path d="M124 63.7394L129 61.3394M123.3 66.2394L128 64.1394" stroke="#010101" stroke-width="0.75" stroke-linecap="round" stroke-linejoin="round"/>
<path d="M129.1 55.2393L131.7 56.6393L132.1 56.2393L129.6 54.7393L129.1 55.2393Z" fill="#010101"/>
<path d="M85.4 35.7L84 38.3L87.1 36.9L96.4 37C96.9 37 97.1 36.5 97.1 36.3V31.9C97.1 31.3 96.6 31 96 31H85.9C85.3 31 84.8 31.5 84.8 31.9V35.7H85.4Z" stroke="black" stroke-width="0.6447" stroke-linecap="round" stroke-linejoin="round"/>
<path d="M88.6348 33.6656C88.6348 33.8099 88.6 33.9453 88.5304 34.0716C88.4634 34.1979 88.3564 34.2997 88.2095 34.377C88.0651 34.4544 87.8821 34.493 87.6604 34.493H87.208V35.5293H86.6667V32.8304H87.6604C87.8692 32.8304 88.0471 32.8665 88.194 32.9386C88.341 33.0108 88.4505 33.1101 88.5227 33.2364C88.5974 33.3627 88.6348 33.5058 88.6348 33.6656ZM87.6372 34.0561C87.7867 34.0561 87.8976 34.0226 87.9698 33.9556C88.0419 33.886 88.078 33.7893 88.078 33.6656C88.078 33.4026 87.9311 33.2712 87.6372 33.2712H87.208V34.0561H87.6372ZM90.6741 35.015H89.5992L89.4213 35.5293H88.8529L89.8234 32.8265H90.4537L91.4242 35.5293H90.8519L90.6741 35.015ZM90.5271 34.582L90.1366 33.4529L89.7461 34.582H90.5271ZM92.3283 32.8304V35.5293H91.787V32.8304H92.3283ZM93.8066 32.8304C94.0902 32.8304 94.3389 32.8858 94.5529 32.9966C94.7694 33.1075 94.9357 33.266 95.0517 33.4722C95.1702 33.6759 95.2295 33.913 95.2295 34.1837C95.2295 34.4544 95.1702 34.6915 95.0517 34.8952C94.9357 35.0962 94.7694 35.2522 94.5529 35.363C94.3389 35.4739 94.0902 35.5293 93.8066 35.5293H92.8631V32.8304H93.8066ZM93.7873 35.0692C94.0708 35.0692 94.2899 34.9918 94.4446 34.8372C94.5993 34.6825 94.6766 34.4647 94.6766 34.1837C94.6766 33.9027 94.5993 33.6836 94.4446 33.5264C94.2899 33.3666 94.0708 33.2866 93.7873 33.2866H93.4045V35.0692H93.7873Z" fill="#020202"/>
<path d="M83.9 13.1V20C83.9 20.5 84.4 21 84.9 21H101C101.6 21 102.1 20.6 102.1 20V13.1C102.1 12.5 101.6 12 101 12H84C83.5 12 83 12.9 83 12.9L83.9 13.1Z" stroke="black" stroke-width="0.6447" stroke-linecap="round" stroke-linejoin="round"/>
<path d="M93.4999 14.5H100.1M93.3999 16H100.1M93.3999 18H97.8999" stroke="black" stroke-width="0.5152" stroke-linecap="round" stroke-linejoin="round"/>
<path d="M86.1001 14.2998H89.5001M86.1001 15.2998H89.6001M86.4001 15.2998C87.0001 15.2998 89.2001 14.9998 88.4001 16.4998H86.4001L88.6001 18.7998" stroke="black" stroke-width="0.3776" stroke-linecap="round" stroke-linejoin="round"/>
<path d="M62.9 20.011L79.4 22.711C79.6 22.711 80.5 23.111 80.2 24.111L79.2 29.911C78.9 30.111 78.6 30.111 78 30.011L63.4 27.411L61 29.211L61.9 21.011C61.9 20.511 62.4 19.911 62.9 20.011Z" stroke="black" stroke-width="0.6447" stroke-linecap="round" stroke-linejoin="round"/>
<path d="M64.9869 25.6588C64.7362 25.6255 64.5138 25.536 64.3198 25.3904C64.1257 25.2448 63.9811 25.0602 63.886 24.8367C63.7912 24.6106 63.7614 24.3658 63.7965 24.1024C63.8313 23.8415 63.9239 23.6156 64.0743 23.4248C64.2251 23.2314 64.4132 23.0898 64.6386 23.0001C64.8641 22.9104 65.1021 22.8822 65.3528 22.9156C65.6061 22.9493 65.8284 23.0388 66.0199 23.184C66.214 23.3296 66.3571 23.5153 66.4494 23.741C66.5445 23.9646 66.5747 24.2068 66.5399 24.4677C66.5047 24.7312 66.4118 24.9596 66.261 25.153C66.1131 25.3441 65.9265 25.4846 65.701 25.5743C65.4756 25.6641 65.2375 25.6922 64.9869 25.6588ZM65.0508 25.1793C65.212 25.2007 65.3587 25.1838 65.4911 25.1285C65.6237 25.0707 65.7337 24.9786 65.8208 24.8522C65.9079 24.7259 65.9635 24.5732 65.9874 24.3941C66.0112 24.2151 65.9975 24.0544 65.9462 23.9122C65.8952 23.7675 65.8131 23.6511 65.6999 23.5631C65.5867 23.4752 65.4495 23.4205 65.2883 23.399C65.1272 23.3775 64.9792 23.3943 64.8443 23.4492C64.7119 23.5045 64.6022 23.5953 64.515 23.7217C64.4282 23.8455 64.3729 23.9969 64.349 24.1759C64.3251 24.355 64.3387 24.5169 64.3897 24.6617C64.4406 24.8064 64.5226 24.9241 64.6354 25.0146C64.7512 25.1029 64.8897 25.1578 65.0508 25.1793ZM68.1411 26.0516L67.6895 24.9293L67.4362 24.8956L67.297 25.9391L66.7598 25.8676L67.1171 23.1896L68.1224 23.3234C68.3295 23.351 68.5011 23.4116 68.637 23.5052C68.7732 23.5962 68.8688 23.7092 68.9237 23.8441C68.9815 23.9767 69.0002 24.1198 68.9797 24.2733C68.9562 24.4497 68.8837 24.6028 68.7623 24.7324C68.6412 24.8595 68.476 24.9364 68.2668 24.9632L68.7627 26.1343L68.1411 26.0516ZM67.49 24.4927L67.9389 24.5525C68.0847 24.5719 68.198 24.5518 68.2788 24.4923C68.36 24.4302 68.4089 24.3365 68.4257 24.2112C68.442 24.0884 68.4189 23.989 68.3561 23.913C68.2937 23.8344 68.1896 23.7854 68.0438 23.7659L67.5949 23.7062L67.49 24.4927ZM70.5113 23.6416C70.7927 23.679 71.0322 23.7669 71.2298 23.9052C71.43 24.0438 71.574 24.223 71.6618 24.443C71.7525 24.6607 71.7799 24.9039 71.7441 25.1725C71.7083 25.441 71.6181 25.6685 71.4734 25.8549C71.3317 26.0391 71.1461 26.1719 70.9166 26.2532C70.6896 26.335 70.4354 26.3571 70.154 26.3196L69.2178 26.1949L69.5751 23.5169L70.5113 23.6416ZM70.1958 25.8605C70.4771 25.898 70.7048 25.8502 70.8787 25.7171C71.0527 25.5841 71.1582 25.3782 71.1954 25.0994C71.2326 24.8206 71.1849 24.593 71.0522 24.4165C70.9199 24.2375 70.7131 24.1292 70.4317 24.0917L70.0519 24.0412L69.8159 25.8099L70.1958 25.8605ZM72.8047 24.3882L72.7151 25.0597L73.6168 25.1797L73.5599 25.6056L72.6583 25.4855L72.5636 26.1953L73.5804 26.3307L73.522 26.7681L71.9681 26.5612L72.3258 23.8793L73.8798 24.0862L73.8214 24.5236L72.8047 24.3882ZM75.3914 27.0171L74.9398 25.8948L74.6865 25.8611L74.5473 26.9047L74.0102 26.8331L74.3674 24.1551L75.3727 24.2889C75.5799 24.3165 75.7514 24.3771 75.8873 24.4707C76.0236 24.5618 76.1191 24.6747 76.174 24.8096C76.2318 24.9422 76.2505 25.0853 76.23 25.2388C76.2065 25.4153 76.134 25.5683 76.0126 25.6979C75.8915 25.825 75.7263 25.9019 75.5171 25.9287L76.013 27.0998L75.3914 27.0171ZM74.7403 25.4582L75.1892 25.518C75.335 25.5374 75.4483 25.5174 75.5292 25.4578C75.6103 25.3957 75.6593 25.302 75.676 25.1767C75.6924 25.0539 75.6692 24.9545 75.6064 24.8785C75.544 24.7999 75.4399 24.7509 75.2941 24.7315L74.8452 24.6717L74.7403 25.4582Z" fill="#020202"/>
</svg>
