<svg xmlns="http://www.w3.org/2000/svg" viewBox="0 0 159.8 190">
<!-- SVG created with Arrow, by QuiverAI (https://quiver.ai) -->
  <style type="text/css">.cls-0 {fill:none;stroke:#ECECEC;stroke-width:0.75;stroke-linecap:round;stroke-linejoin:round;}
.cls-1 {fill:#F3F3F2;}
.cls-2 {fill:none;stroke:#000000;stroke-width:0.6674;stroke-linecap:round;stroke-linejoin:round;}
.cls-3 {fill:none;stroke:#010101;stroke-width:0.7272;stroke-linecap:round;stroke-linejoin:round;}
.cls-4 {fill:none;stroke:#010101;stroke-width:0.75;stroke-linecap:round;stroke-linejoin:round;}
.cls-5 {fill:#010101;}
.cls-6 {fill:none;stroke:#010101;stroke-width:0.7037;stroke-miterlimit:10;}</style>
  <path class="cls-0" d="m127.6 93c-2.1 2.3-3.6 4.9-5.8 7m5.3-9-1-1m3.9 2.6 0.8 0.2m-3.5-2.6-0.6-0.4"/>
  <path class="cls-0" d="m129.2 99.8 1.1-0.8m-0.8 2.3h0.5"/>
  <path class="cls-0" d="m129.2 102.1 0.4 0.4m0.3 0.2v0.2"/>
  <path class="cls-0" d="m140.9 34v-0.2l2.1 70.9m-13.1 0.7c1.4 0.1 17-0.7 17-0.7m-12.9 39.8 0.5 29.4-0.4 2.8-0.8-31.7-24.3 1.8"/>
  <path class="cls-0" d="m135.3 161.6c1.3-0.2 19.5-1.8 24.3-1.8"/>
  <path class="cls-0" d="m134.5 144.7c1.5-0.2 24.9-3.1 25.4-3.1m-22.1-4.6 21.8-2.3m-159 15 33.3-3.3m-33.3 9.8 32.6-3.1m-24.2 19.6c0.7-0.6 38.7-3.8 39-3.8"/>
  <path class="cls-0" d="m111.4 163.3 10.7-1.1v-0.1"/>
  <path class="cls-1" d="m60.5 40.5-2.4-0.7h-4.1c-0.2 0.1-0.4 0.7-0.7 1.1s-1 0.1-1.4 0.4c-0.9 0.8-1.9 2.4-2.3 2.4s-3-0.6-4.1-0.6-4 1.2-4.1 4.8c0 3.5 2.4 4.6 2.4 4.6l-1.5 2.5 0.6-0.3 3.2-4.3c1 0.3 1.8 0.8 2.6 1.5l1.7 1.1c3.6-2.8 8-8 10.1-12.5zm-3.6 5.1-0.2-1.5c-0.8 0.5-2.7 0.2-2.6-1.4l1.1-1.2-0.7-0.8h2.9l1.6 0.8-2.1 4.1zm18.2-4.9c-1.1 1.4-1 2.5-1 3.8-0.2 2.4 4 4.8 1.7 6.2-1.2 0.6-3-0.9-3.7-0.3-0.6 0.6-2.1 3.9-2.4 4l0.9-0.4 1.7-3c1.4-0.2 2.4 0.9 3.8 0 2.7-1.9-1.4-4.3-1.4-6.4l0.4-2.4c2 1.3 4 1.1 5.9-1.6v-0.4c-1.9 0-4-0.1-5.9 0.5zm1.3 5.1c-1 0.2-1.7-1.4-0.3-1.3 1.1 0.2 1 1.3 0.3 1.3zm-4.7-1.9c-0.8 0-1.2-1.8 0.3-1.5 0.7 0.3 0.8 1.7-0.3 1.5zm72.6 4.3 0.3 0.2 14.9-0.4v-25.4l-14.9 0.3h-0.1-0.2l1.3 25.1m-72.9 33.3v0zm-17.9 13.4c-2.7-2.2-5.9-4.1-9.8-5.1-1.5-2.5-2.3-5.2-2.3-8 0-5.6 4.8-11.6 10.8-13.1l0.6 0.2 1.5 4.4c-1.5 2.1-1.5 5 1.3 6.3 1.5 0.8 1.1 2.8 2.4 3.6l2 0.5 0.3 9.2c-2.1 1.2-4.4 1.9-6.8 2zm10.4-2.3-2-1.1-1.9 5.2 0.3 0.5c1.3-1.1 2.1-3.1 3.5-4.5 0.6 0.1 1.8 0.6 2 2.2l-0.6 2.9 1.1 0.3c-0.2-2 0.7-4.7-2.4-5.5zm28.6 2.7c-1.7-2-4.3-1.2-6.3-0.6v0.6l4.6 1.1 2.5 0.8h-0.2l-0.3-0.2c0.5-0.3 0.2-1.1-0.3-1.7zm-91.6 18.9 0.1 5c0 1.4 5 1.4 7.2 1.5l0.4-2.5-7.7-4zm-1.8 0.5 1.2-0.2-0.6-0.8"/>
  <path class="cls-0" d="m45.4 50.4c1 0 8.5 5.2 8.6 6.7-1 1.4-1.8 2.2-3.9 2.3-2.5 0-3.8-2.1-5.8-1.5-2.2 0.5-2.4-0.9-2.4-0.9 1.3-2.2 3.6-6.5 3.5-6.6z"/>
  <path class="cls-0" d="m30.6 58.7c-7.4 1.7-13.4 8.8-17 14.1-1.3-0.1-4.7-1.2-5.3-0.8-0.7 0.4-2.2 6.4-3.2 11l8.5-9.5m26.3 52.8c-4-0.9-6.8 6.2-2.8 7.8-1.5 0.4-3.8 1.4-3 4.6-0.2 2.4-0.8 3.5-3.1 4l-1.5 1.3m13.2-61.8c-3.6-2.2-3.8 3-7.4 2.9-1.7-0.2-4.4 0.4-4.4 2.8m5.2 2.2c0.3-3 6.6-4.1 5.3 1.1v1.3m-41-0.1c1.9-0.3 4.4-3.2 3.2-6.3m-3.2 4.1c1.8-3.2 4.4-7 5.7-7.6 1.9-0.4 4.6 1.8 2.6 4.5-1.8 2.3 0.6 2.6-0.2 5.9-1.8 3.8-4.2 1.9-6.2 2.9-0.9 0.8-1.9 1.8-1.8 3.1l-0.1 7.5c2.8-2.5 1.2-6.8 0.7-7.5m24-36.6c1 4-3.5 6-5.2 4.4m5 3.7c1.2 2.7 0.5 6-1.4 8.5-1.6-1.9-1.9-7 0.5-8.5"/>
  <path class="cls-0" d="m10 117.9c-0.3 11.9 5.3 18.6 17.1 24.2l6.8 3.4c-8.2 0.9-33.5 3.7-33.5 4.2m10.1-31.8c5.9 2.7 12.9 4.8 22.1 6.1 0.5 0 0.9-0.2 1-0.5l4.6-13.8 7.9 2.4 1.1-0.1 8.3-11.1-4-0.7-0.8 1.7h-1.5c-0.6 3.7-5 1.6-8.7 0l-4 11.9h-1.2c-3.9-1.8-3.8-0.4-6.4 0.8-1.3 0.8-2-0.2-3-0.2 0 3.8-5.4 5.6-7.3 1.5l-1.7-1.2-2.4-0.6c-3.5-1.1-3.4-6.6 0.6-7.2 1.6-1 0.8-3.8 3.6-4.5 1.7-0.5 4.4 0.5 4.9 2.2 0.5-1.5 5-4.1 5.1-4 1.4 0.8-0.8 3.3-3.3 5.3 3.7-3.4 5.6-1 7.7-1.3 2.8 0.3 3-3.1 7.3-2.2l2.8-8.8c0 0.1-23.3-10.7-23.5-10.7m21.6 25.3 2.1-4.1"/>
  <path class="cls-0" d="m29.6 59.4c2.7 2.5 1.8 5.1-0.9 5.5-1.2 1.3 0.6 4.5-3.6 5.6l-2-0.3c-2 0.3-3 2.7-4.9 2.5-1.3 0-2.4-1.1-1.9-2.2m32.6 25.2 0.7-1h3.5c7.6 0.4 10.1-2.5 12.1-3.7l0.9-1.6c1.5-0.9 3.5-6.4 1.6-10.9l-1-2.9c0.4-4.4 2.4-5.6 3-5.2l2.9 2.5c1.5 1.2-1.6 2.2 1.3 5.8l2 1.5c3 1 7 6.4 8.1 8.5l14.8-8.8 4.3-2.4 1.5 25.7"/>
  <path class="cls-1" d="m156.3 156c0.8-1.3 3.7-4.8 3.7-6.8s-3.3-3.1-4.3 1.7c-0.5 3.3-0.2 7 0.6 5.1zm-0.6 3.9c0.4-2 1.8-3.8 3.9-3.8v2.8l-1.7 1h-2.2zm0-0.5c0-1.4-2.1-7.9-3.6-6.4-2 1 1.2 5.6 3.6 6.4zm-0.2 1.8 4.1-2v0.6l-2.5 1.5-1.5 0.6-0.1-0.7zm0.2 2.8c-0.8-0.8-3.6-5-4.8-2.6-0.4 1.5 1.2 3.8 5 4.2l-0.2-1.6zm1.4 2.4c-0.4-2.4 1.4-5.2 2.4-5.2v4.2l-1.6 1.2-0.8-0.2zm-8.2 2.6c1.6 0 5.4 4.4 5.2 7.6l-1.4-0.5c-0.7-1.1-4.1-2.7-4.6-4.7-0.6-0.9 0-2.4 0.8-2.4zm-8.3 5.7c0.7 2.8 6.6 0.4 10.3 0.7h0.4l0.3 0.2h1.1c-3.6-1.5-11.8-4.9-12.1-0.9zm18.3-2.8c-1 0-2.2 2.5 1 5.7v-5.1l-1-0.6zm-11.6 6c-1.6 1 0.3 4 5.6 0l3.4-0.3v-0.6c-2.3-0.4-5.4-0.9-9 0.9zm9 2.6c-4.7 0-4.7 2-3.2 3 1.5 0.4 4-0.5 6.5-1.1v-1.4l-3.3-0.5zm-7.4 6.5c-1.7 1.4-0.3 3.6 1.5 2.5l8.2-2.8c-3.1-0.7-7.3-1.5-9.7 0.3zm-29.2-111c0-2 2.2-2.6 0.8-7.5 0.7-0.3 2.1-0.1 2.1 0.2 0.4 0.3-0.2 0.8 0 0.7 0.3 1.3-1 5.5-2.5 7.6l-0.4-1zm-28.1 63.6c0.9-0.1 2 2.4 3.3 6.3l0.2-0.2c2.5-2.7 4.1 0.7 4.1-2.7l0.4-1c-0.2-2.3-5.2-2.1-8-2.4zm-6.5 3.8c3.3 0 3.3-1 4.5-2.2l4.5-0.2-4.5-1.9-4.5 3.3v1zm34.4-59.5c-1 0-3.4-0.3-4.4-0.9v-0.6l-0.2-0.4h2.4l2.8 1-0.6 0.9z"/>
  <path class="cls-0" d="m118.5 84c1.2 1.4-0.6 4.1 1.4 3 0.2-1.4 2.1-5 0-4.6-2.2-0.2-1.6 1.3-1.4 1.6zm-5.4-6.5h-1.6m3-0.5 6.1 2c-0.9-1.6-5-3.5-6.1-2z"/>
  <path class="cls-0" d="m112.4 79.5c2.7 0 7.7 3.4 9.7 1.5l0.3-0.6c-2.5-2-7.5-2.5-8.4-1.9l-1.6 1z"/>
  <path class="cls-0" d="m106 76.2c1-2.3 8-4.1 10.4-2.3 2.8 1 6.2 3.2 2.5 4.5l3-0.9c1 0.5 2.7 1.7 0.2 3.6"/>
  <path class="cls-0" d="m119.7 78.6v-2.9"/>
  <path class="cls-1" d="m122.5 76.6h-1.3l-1.5 2.1 2.3 1.5 0.5-0.3c-0.5-0.8 0.5-1.5 1.5-1l-1.5-2.3z"/>
  <path class="cls-0" d="m122.1 77c0.8 0.5 0.9 0.5 0.3 1.1l-0.3-1.1zm-101.5 30.9c-1.4-0.2-3.7 1.1-2.9 3.5 2.2 3.2 6 1.1 5.8-1.4-0.3-1.6-1.5-2.1-2.9-2.1zm130.9-1.7c-3.4 0.2-4.6 3.5-4 6.4 0.5 1.5 3.4 4.4 7.2 3.4 4-1.5 5.2-9.6-3.2-9.8z"/>
  <path class="cls-1" d="m152 107.7c-4 0.3-4.3 5.5-1.4 6.9s6-1 6-3.5c0-2.2-2.6-3.6-4.6-3.4z"/>
  <path class="cls-0" d="m148.6 103.7c-5.3 2.7-4.1 13.2 2.7 15l1.8 1.9 0.8-0.1 0.6-1.4h4.4l0.7 0.4m0-23.9c-2 0.6-2.7 2.9-2.7 4.9h-3.3c-0.5-0.9-1.1-1.8-2.4-1.1s-0.6 3.6-1.8 4"/>
  <circle class="cls-0" cx="152.5" cy="103.9" r=".5"/>
  <circle class="cls-1" cx="158.9" cy="103.9" r=".9"/>
  <path class="cls-0" d="m158.1 100.6 1-1.9"/>
  <path class="cls-0" d="m0.5 180.7 5 6.3c0-1.8-0.9-8.6-1.5-10.1 2.9 1.3 6.9 3.7 9.1 7.5 0.8-3.9 2.8-8.4 4.5-10.4l1 11c0.9-2.9 1.5-5.4 3-7.5 1.8 2.2 4.8 7.9 5.3 9.5-0.4-2.6-1.6-9.4-1.5-9.5 1.8 0.5 5.7 5.1 7.2 9.1 0.7-2.1 2.5-6.1 5.5-9.1-0.2 3.1-0.6 8.9-0.1 11.1 1.5-3.1 2.9-6.2 5.5-9.1l2.1 9.2c1.3-2.8 2.9-5.1 5.1-7.7m10.7-3.6 1.1 2.6c3.5-0.6 9.6-2.8 12.4-2.9m-9.3 1h3.1l7 12m3.9-12.9 3.4 12.2m8-12.2 4.6 9.4m5.8-9.4 2.5 7.7m17.2 2.2c2.8-0.7 7-0.1 11.3 1.3-2.7-3.2-4.3-5.9-4-5.4 1.5 1 7.1 3.4 10.2 3.6 1 0.4-2.9-3.7-4.1-4.5l10 2.9c-1.4-2.5-3.4-3.6-4.4-4.6 1.2 0 4.5 0.6 7.2 1.7"/>
  <path class="cls-0" d="m121.6 146.1 0.8 29.4"/>
  <path class="cls-0" d="m127.9 145.6 0.7 7.5v2.8l0.3 20.3"/>
  <path class="cls-0" d="m75.3 40.2 65.8-0.1"/>
  <path class="cls-2" d="m54.4 69.4c-1.4-4.4-0.5-10.4 4.3-13.7 3.7-2.7 9.4-3.3 13.8-0.1m3.4 4.1c0-1.7-1.3-3.8-3.3-3.8-3.5 0.2-8 2.1-10.6 4.2-2.5 2-6.1 5.3-7.9 9.6-0.5 2.5-0.2 3 1.6 4.8"/>
  <path class="cls-3" d="m76.4 63.9 0.6 4.6"/>
  <path class="cls-4" d="m67.7 62.4c1 1.7 1.9 4.5 3.3 5.6 1.5 1.2 4.9-0.3 6.5 0.7 1.4 0.9 1.2 4.2-0.1 5.3l-3.2 1.7 1.2 3.3c1.6 0 3.1 0.7 2.2 2.5-0.2 1.5 1.9 1.4 1.3 3.9-0.4 1.2-1 2.5-2.3 2.5l-1.5 0.7c-1.5 2.5-2.5 2.5-4.4 1-1.2-0.6-1.8 0.6-3.5 0.3-0.8-0.3-1.7-1-1.5-2.4 1-3.4-1.7-1.9-1.7-4.6 0-0.8 0.2-1.5 0.7-1.9m10.7 7 1.3 0.1s2.8 4.3 4 4.8c2.3 0.8 11.9 2.7 17.3 5.8 3.6 2 10 7.2 10.4 8"/>
  <path class="cls-4" d="m59.5 98 2-2.1c0.4-1.2 0-8.9-0.8-12.8-1.2-5-2.7-6.5-1.6-9.6 0.8-1.4 3.1-1.1 3.6 0.6l1.3-0.4c0-1.2-2.1-5.1-0.6-7.7 4.2-3.5 8.2-6 12.5-6 0.8 0.4 1.5 1.7 0.5 3.9-2.8-1.4-5-2.3-8-1.9"/>
  <path class="cls-5" d="m71.9 66.6c0.2 0.9-0.5 0.9-0.4 0.4-0.1-0.6 0.1-0.8 0.4-0.4zm-3.4 1.6c0.1 0.8-0.8 1.2-0.8 0.3s0.8-0.6 0.8-0.3z"/>
  <path class="cls-4" d="m68.9 88.6 0.2-0.7m1.6 0 0.2-0.8m1.3 0.4 0.2-1.4m1 1.3-0.3-1.5m1.3 1.1-0.3-1.4m0.9-0.2 0.4 1.3m0.5-2.3 0.5 1.7m0.6-1.7 0.5 1.1"/>
  <path class="cls-5" d="m55.7 74.5 0.4-0.1c4.9-8 11.5-13.9 19.8-14.4 0.7 0.2 1.5 2.6 0.5 3.9-0.9-0.7-3.9-1.9-6.4-1.8-1.1 0-7 2.9-7 4.5-0.3 2.9 1 5.8 1.4 7.1l-1.5 0.8c-0.5-1.8-2.8-2.6-3.5-0.8-0.5 3.2 1.2 5.2 1.8 9.7l-0.6 0.1c-1.4 0-2.9-0.9-3-2.6-0.2-1.7-1.7-1.3-2.7-2.8-1-1.6 0.8-3.1 0.8-3.6z"/>
  <path class="cls-4" d="m58.9 98.6c4.5 4 16.7 6.3 24-2.1l0.5-1.5c0-0.3 0.2-1.1-0.5-1.3l-2.3-0.7c-4 5.9-13.2 7.1-19.1 3.6l-1.8-0.1m11.9 5.5c0.9 1.5 3.3 4 3.5 3.9l1.6-5.2"/>
  <path class="cls-4" d="m58.9 98c-7.4 7-14.3 16.6-16.8 22.2-2.5 5.5-7.2 18.8-8.6 26-0.4 2.5-1.6 8.3 1.6 12.2 2.3 2.8 5.4 5.1 12.8 5.2 8.7 0 17.1-1.6 25-4.6 2.2-0.6 4.8-2.1 4.7-4.1-0.9-3.8-1-6.7-1-10-0.7-1.9-2.6-1.9-8.2-1.9l-20.7-0.3"/>
  <path class="cls-4" d="m54.1 142.6 3.3-15.1"/>
  <path class="cls-4" d="m76.9 145 5.1-0.6 1.1 8.5-5.4 1.7"/>
  <path class="cls-4" d="m82.2 145.5 2.2-1.5c9-7.1 12-9 14.3-8 2.4 1 7.5 4.2 5.7 6.4m-21 9.7c2.3 0.3 3.2 0.1 4.6-0.4 2.1-0.8 4.9-2.8 7-5.3 0.7-1 4.1 1.2 7.2 2.8 1.9 1.2 2.8-0.3 1.7-1.7"/>
  <path class="cls-4" d="m96.4 138c2.7 0.4 9 4 8.2 7.2l-1 0.3"/>
  <path class="cls-4" d="m97.4 140.5c2 0.5 7.5 4.5 7 6.6l-0.7 0.4m-7.3-4.5c2.5 1.2 7.5 4.1 7.6 5.4"/>
  <path class="cls-4" d="m48 163.7 0.1 13.3"/>
  <path class="cls-4" d="m68.1 160.5c-0.5 3.6-2.2 7.6-4.7 10.6-0.8 0.6 0.2 4.6 0.7 5.8"/>
  <path class="cls-4" d="m72.6 158.9 25.5-1.2c1 4 3.3 9.2 6.4 13 0.6 0.5-0.3 4.9-0.8 6.2"/>
  <path class="cls-4" d="m104.1 123.9c1.5 10 7.9 43.1 10.4 53"/>
  <path class="cls-4" d="m107.4 140.1c2.2 1.8 10.5 4.8 17.7 4.9 8.9 0 13-3.1 12-12.6-1.7-9.9-6-18-8.1-23.4-4.1-8.5-8.4-18.8-10.9-22.5-0.7-0.9-2.1-2.6-4-2.9"/>
  <path class="cls-4" d="m104.5 84 0.5 2.5 0.4 0.6 8-3.4-0.8-2.7h-1.1l-6.1 2.4-1.3 0.6c-3.1-4.5-6.2-13.3-4.1-16.1 2.5-1.7 7.2 5.1 6.6 6.2-0.7 1.3-3.7 0.4-5-1.4"/>
  <path class="cls-4" d="m106.6 74c0.4 1.9-0.2 4.2 0.4 6.4"/>
  <path class="cls-4" d="m107.6 72.6c-0.4-1.1-3.6-2.9-4.2-3.6-0.9-1.5 1.5-9.3 1.6-11.3 0.4-1.7 1-5.5 1.9-5.2 0.7 0.1 0 2.9 0 9.4"/>
  <path class="cls-4" d="m107.5 70.1c-1.6 1-3.9-1.5-4.1-2.2-0.3-1.9 2.6-6.8 4.6-5.9h1"/>
  <path class="cls-4" d="m108.9 70.7-1 3m1.2-11.7c1.3-0.4 2.1 0.2 2.4 1m0.1 0.4c-0.1-0.4 1.8-0.7 2.4 0.1 1.4 3.1-0.6 12.4-2.5 16.4m-5.5-10c-1.1-3.4 3.6-8.4 4.7-7.4"/>
  <path class="cls-4" d="m107.6 70.6c-0.2-4.9 4-8.9 6.3-7.2"/>
  <path class="cls-4" d="m107.9 70.7c1.7 0.9 2.7-0.1 4.1-3.8"/>
  <path class="cls-4" d="m104.4 87.6c-1.3 1.6 1.7 13.8 4 19.9l6 16.9"/>
  <path class="cls-4" d="m104.6 87 9.1-3.6"/>
  <path class="cls-3" d="m35 52.5c6 0 9.2 4 8.2 7.6 0 0.9 6.9 6.1 6.8 7.4l-8.1-2c-3.5 5.4-11.5 3-12.9-1.6-1.4-3 0.7-11.4 6-11.4z"/>
  <path class="cls-5" d="m35.2 55.7c2.7-0.3 4.7 2.3 3.4 3.9-0.7 0.1-0.5-0.6-0.2-1.2l-2-0.9 0.6 5.6c0.4 2.6-3.9 2.3-3.9 0.5 0-1.7 2.5-1.2 2.8-1.1l-0.7-5.9v-0.9z"/>
  <path class="cls-6" d="m85.4 14.7 3.5 12.9c0.1 0.6 0.8 1.1 1.6 1l13.1-3.6c0.8-0.1 1-0.9 0.8-1.6l-3.3-12.7c-0.2-0.7-1-1.2-1.7-1l-13.2 3.4c-0.6 0.3-1.1 0.9-0.8 1.6z"/>
  <path class="cls-4" d="m99.5 28.5"/>
  <ellipse cx="92.3" cy="52.9" rx="1.7" ry="1.8" fill="none" stroke="#000" stroke-miterlimit="10" stroke-width=".7037"/>
  <path class="cls-4" d="m102.5 29.5 1.2 1.6"/>
  <path class="cls-4" d="m100.5 32.1 1.6 1.5"/>
  <path class="cls-4" d="m98.7 35.4 1.8 0.8"/>
  <path class="cls-4" d="m97.4 39h2.1m13.5 7.9 1.1 1.5m0.9-4 1.6 1.3"/>
  <path class="cls-4" d="m116.6 41.9 1.9 0.6"/>
  <path class="cls-4" d="m117.6 38.9h2"/>
  <path class="cls-4" d="m83.1 37.5c0.8-0.9 1.6-2.4 3.6-2.4 2.4 0.3 2.3 0.4 2.4 1.4 0.4 1.7-1 4-1.5 4.1-2.5-0.4-4.6-2.7-4.5-3.1z"/>
  <circle cx="86.6" cy="37.6" r="1.4" fill="none" stroke="#000" stroke-miterlimit="10" stroke-width=".7037"/>
  <path class="cls-4" d="m109 28.5c-1.6 2.1-8.9 14.6-9.6 15.9-0.8 1.3 0.1 2.2 0.6 2.3l6.4 3c1 0.5 2 0.7 2.5-0.3l8.7-15c0.5-0.9 0.4-2-0.6-2.4l-6.5-3.6c-0.6-0.2-1.4-0.2-1.5 0.1z"/>
  <path class="cls-4" d="m103.1 46.5-0.2 0.4 0.5 0.7h0.7l0.4-0.7-0.8-0.5-0.6 0.1z"/>
  <path class="cls-4" d="m108.9 30.2-7.8 13.5c-0.1 0.3 0 0.7 0.4 0.7l6.1 3.1c0.3 0.2 0.8 0.1 0.9-0.1l7.6-12.8c0.3-0.6 0.3-0.9-0.2-1.1l-6.3-3.5-0.7 0.2z"/>
  <path class="cls-4" d="m106.4 39 5-2.4m-5.7 4.9 4.7-2.1"/>
  <path class="cls-5" d="m111.5 30.5 2.6 1.4 0.4-0.4-2.5-1.5-0.5 0.5z"/>
  <path class="cls-6" d="m117 20.2c-0.4-0.5-0.5-1 0-1.7l4-5.4c0.5-0.7 1.5-0.5 1.9-0.1l16.1 9.4c0.6 0.5 0.6 1.1 0.4 1.7l-3.5 6.1c-0.5 0.8-1.3 1.2-1.9 0.8l-17-10.3v-0.5z"/>
  <circle cx="112.5" cy="11.4" r="1.6" fill="none" stroke="#000" stroke-miterlimit="10" stroke-width=".7037"/>
  <path d="m122.8 19.44 3.86-3.67-1.13-0.73-2.93 3.39 4.23 2.79 2.93-3.3-1.13-0.73-2.16 2.42zm3.03 3.46 1.08 0.74 1.1-1.1 3.01 1.9 2.49-2.46-4.98-3.15-2.68 2.96zm3.75-2.82 2.58 1.67-0.58 0.58-2.53-1.63zm3.96 5.96 1.24 0.79 3.15-4.13-1.19-0.68z"/>
  <path d="m135 23.89 0.77 2.05-2.88 0.71z" fill-rule="evenodd"/>
  <path d="m134.6 23.83-0.05 0.96 0.35 1.04-2.44 1.19 3.72-0.69zm0.22 0.91 0.08-0.55 0.96 2.05-3.37 0.52z"/>
  <path class="cls-4" d="m130.3 38.9c2.3 3.7-2.2 5-0.9 7.2"/>
  <path class="cls-4" d="m127.9 45.9c-1.4-2 1.1-2.5 0-4.3m4 4.4c-1.4-1.5 1-2.9 0.2-2.9"/>
  <path d="m121.7 13-0.6 1m15.8 6.5 2.2 1.5c0.8 0.5 0.9 1.5 0.6 2.2l-4.6 7.2c-0.2 0.3-1.2 0.5-1.7 0.1l-16.4-9.5c-0.5-0.5-0.6-1.3-0.3-2l1-1.6" fill="none" stroke="#000" stroke-width=".75"/>
  <path class="cls-4" d="m138 51c0.6-2-13-3.6-16.4-1-0.6 0.4-0.1 1.4-0.1 1.4 0.1 4.1 1.9 7 4.4 8.1v1.2c1.8 0.7 5 0.7 7 0v-1.1c1.1-0.6 1.7-1.4 2.5-2.2 1.3-0.2 6-0.4 6.5-3.8 0.1-2-1-3-3.3-2.5l-0.5 1.3"/>
  <path class="cls-4" d="m122.4 50.6c1.6 1.8 11.7 3.5 15.5 0.8"/>
  <path class="cls-4" d="m123.1 51.5c2.4-2 10.3-2 13.5-0.3"/>
  <path class="cls-4" d="m138 53c1-1.1 3.4-0.1 1.6 2-1.1 0.9-2.2 1-3 1.4"/>
  <path class="cls-4" d="m121.6 53.4"/>
  <path class="cls-4" d="m122 53.4"/>
  <path class="cls-4" d="m122 53.4"/>
  <path class="cls-4" d="m121.6 53.4"/>
  <path class="cls-4" d="m122.1 53.5"/>
  <path class="cls-4" d="m122 53.4"/>
  <path class="cls-4" d="m122.1 53.5"/>
  <path class="cls-4" d="m121.6 53.4"/>
  <path class="cls-4" d="m121.4 53.5"/>
  <path class="cls-4" d="m122.5 53.9"/>
  <path class="cls-4" d="m121.9 53.5"/>
  <path class="cls-4" d="m122.1 53.6"/>
  <path class="cls-4" d="m121.6 53.5"/>
  <path class="cls-4" d="m121.6 53.5"/>
  <path class="cls-4" d="m121.6 53.4"/>
  <path class="cls-4" d="m137.4 53.6c-3.5 2.3-11.2 2.1-15.3 0.1"/>
  <path class="cls-4" d="m122.4 54.4c4.5 2.7 11.5 2.5 14.5 0.6"/>
  <path class="cls-4" d="m123.1 55.6 1.3-0.6 0.6 1.4 1.4-1.2 0.5 1.4 1.3-1.1 0.8 1.2 0.9-1.1 1 1 1.2-1.1 0.8 1.1 0.6-1.2 1 0.8 0.6-1.2 1.3 1"/>
  <path d="m124.4 56.4c2 0.6 7.3 1.6 11.2 0.2" fill="none" stroke="#000" stroke-width=".6076"/>
  <path d="m87.39 14.54 3.48-0.81 0.81 3.3-3.47 0.81zm1.51 2.61 1.99-0.47-0.49-2.08-1.98 0.47zm1.56-2.06-1.57 0.37 0.36 1.48 1.57-0.37zm-0.93 3.58h-0.87l0.25 1.04 0.6-0.14 0.12 0.47 0.47-0.11 0.38 1.56 0.47-0.11-0.12-0.47 0.6-0.15 0.25 1.04 0.59-0.14 0.79-0.19-0.12-0.47-1.04 0.25-0.25-1.03-0.6 0.14-0.26-1.04 0.48-0.11 0.11 0.47 0.48-0.11-0.12-0.47 1.16-0.28-0.12-0.47-1.56 0.38 0.25 1.04-0.48 0.11-0.11-0.48-0.48 0.12-0.14-0.6-0.59 0.15zm0.52 3.15-0.48 0.12 0.12 0.47 0.47-0.11zm3.84-0.96-0.12-0.47 1.44-0.35 0.26 1.04-0.92 0.22 0.69 2.81 0.47-0.11-0.14-0.59 0.47-0.12-0.24-0.96 0.47-0.11-0.24-0.96-0.48 0.11-0.24-0.96 0.81-0.19-0.14-0.59-0.6 0.14-0.13-0.51-0.6 0.14-0.11-0.47-0.6 0.14 0.22 0.89-0.47 0.11 0.06 0.24zm0.96 0.74 0.12 0.47 0.47-0.11-0.11-0.47zm-4.9 1.49 3.47-0.82 0.82 3.48-3.48 0.82zm1.5 2.61 2.04-0.49-0.49-2.05-2.04 0.49zm3.17-0.79 0.14 0.6 0.6-0.15-0.14-0.6zm1.06-0.78 0.96-0.24-0.14-0.59-0.96 0.24zm0.46 0.92 0.88-0.22-0.12-0.47-0.88 0.21zm1.12-2.41 0.11 0.47 0.6-0.14-0.12-0.47zm0.71 0.34 0.11 0.47 0.6-0.14-0.11-0.47zm0.04 1.12 0.14 0.6 0.72-0.17-0.14-0.6zm-1.95-4.25 0.87-0.21-0.14-0.59-0.88 0.21zm-1.93-5.68-0.12-0.47 0.36-0.09-0.25-1.04-0.59 0.15 0.11 0.47-0.47 0.11 0.11 0.47-0.47 0.12-0.21-0.89-0.6 0.14 0.14 0.6-0.36 0.08 0.21 0.88 0.36-0.08 0.14 0.59 0.71-0.17 0.35 1.44 0.59-0.14zm-0.76 0.29-0.6 0.14 0.12 0.6 0.59-0.14zm1.6-1.04 0.09 0.38 0.6-0.15-0.09-0.37zm-0.29-1.18 0.48-0.11-0.14-0.6-0.48 0.11zm0.14 3.23-0.25-1.04-0.59 0.14 0.14 0.6-0.6 0.14 0.36 1.43-0.6 0.14 0.12 0.48 0.6-0.14-0.14-0.6 0.6-0.14zm0.57 0.24-0.14-0.59-0.59 0.14 0.14 0.59zm-4.28 2.63 2.31-0.55-0.12-0.48-2.42 0.58zm5.24-5.76 0.81 3.3 2.94-0.71-0.7-3.12zm2.9 2.11-1.74 0.42-0.42-1.74 1.74-0.42zm-3.76 3.27 0.96-0.24-0.14-0.59-0.96 0.23zm2.27-1.13 0.25 1.04 0.59-0.15-0.24-1.04-0.12-0.47-1.43 0.35 0.14 0.59 0.71-0.17zm0.97-0.02 1.16-0.28-0.14-0.6-1.16 0.29zm-3.29-0.06 0.14 0.59 0.6-0.14-0.14-0.59zm-1.23 0.95-0.6 0.14 0.14 0.6 0.6-0.15zm0.59-0.14-0.55 0.14 0.11 0.47 0.88-0.21zm1.28 0.52-0.62 0.15 0.21 0.88 0.76-0.19zm1.04 0.78-0.12-0.48-0.6 0.15 0.18 0.74 0.84-0.2zm-1.31 0.68 0.04 0.18-0.35 0.09 0.14 0.59 0.96-0.23-0.19-0.75zm1.23 0.17 0.15 0.59 0.59-0.14-0.14-0.6zm0.23 0.94 0.18 0.74 0.65-0.15-0.37-1.49-0.52 0.13zm1.97 1.95 1.1-0.26 0.14 0.59 1.04-0.25-0.15-0.6 0.96-0.23-0.11-0.48-0.47 0.12-0.27-1.09 0.47-0.12-0.14-0.59-0.48 0.11-0.11-0.47-0.6 0.14 0.24 0.96-0.59 0.14 0.37 1.5-0.72 0.17-0.14-0.59-0.96 0.23 0.37 1.49-0.88 0.21 0.14 0.6 0.88-0.21zm0.58-1.48 0.48-0.11-0.12-0.47-0.47 0.11zm-0.84-0.5 0.68-0.17-0.24-0.96-0.68 0.17zm2.17 2.57 0.2 0.82 1.09-0.26-0.11-0.48-1.37-0.32zm-0.83-6.39 0.54-0.13-0.11-0.47-0.55 0.13zm-1 3.29 1.17-0.28-0.27-1.09-1.16 0.28zm-0.66-1.73 0.37 1.49 1.16-0.28-0.24-0.96 0.72-0.17-0.31-1.26-0.6 0.14 0.12 0.48-1.32 0.31zm0.68-0.84 0.48-0.11-0.12-0.47-0.48 0.11z"/>
</svg>