<svg xmlns="http://www.w3.org/2000/svg" viewBox="0 0 150 150">
<!-- SVG created with Arrow, by QuiverAI (https://quiver.ai) -->
  <style type="text/css">.cls-2 {fill:none;stroke:#000000;stroke-width:0.7087;stroke-linecap:round;stroke-linejoin:round;}
.cls-3 {fill:none;stroke:#000000;stroke-width:0.6783;stroke-linecap:round;stroke-linejoin:round;}
.cls-4 {fill:none;stroke:#000000;stroke-width:0.75;stroke-linecap:round;stroke-linejoin:round;}
.cls-5 {fill:none;stroke:#000000;stroke-width:0.3543;stroke-miterlimit:10;}
.cls-6 {fill:none;stroke:#000000;stroke-width:0.7087;stroke-linecap:round;stroke-linejoin:round;stroke-dasharray:0.7087,1.4173;}
.cls-7 {fill:none;stroke:#000000;stroke-width:0.4406;stroke-linecap:round;stroke-linejoin:round;}
.cls-8 {fill:none;stroke:#000000;stroke-width:0.68;stroke-linecap:round;stroke-linejoin:round;}
.cls-9 {fill:none;stroke:#000000;stroke-width:0.6783;stroke-linecap:round;stroke-linejoin:round;stroke-dasharray:1.0391,1.4548;}
.cls-10 {fill:none;stroke:#000000;stroke-width:0.6783;stroke-linecap:round;stroke-linejoin:round;stroke-miterlimit:10;}
.cls-11 {fill-rule:evenodd;clip-rule:evenodd;}</style>
  <path class="cls-2" d="m50.1 129.4 0.1 10.5"/>
  <path class="cls-3" d="m59.5 76.6c-3 3.5-10.4 11-13.9 18.8-1.7 3.7-4.6 11.6-6.1 17.1-1.6 5.4-2 10 0.6 13 2.5 3 5.5 3.6 10.4 3.6 7.1 0 16.4-1.6 25.9-4.2 2.1-0.8 1.6-1 0.5-9.9 0-1.5-0.2-1.4-3.7-1.4l-13.2-0.4h-11.2"/>
  <path class="cls-2" d="m73.6 125.6 0.6 14.3m-26.2-28.4c2.4 0.1 4.4 0.2 6.5 1.6l1.1-7.6"/>
  <path class="cls-4" d="m76.9 115.4c3-3 7.7-7.7 11.6-7.9 1.6-0.1 6.5 2.7 6 4.6"/>
  <path class="cls-2" d="m77.9 120.2c3 0.8 7-2.2 8.8-4.2 0.9-1.4 3.7 0.6 5.8 1.9 1.6 1.1 2.5-0.2 1-1.9-1.5-1.6-5.9-3.1-5.8-2.9 0.8-0.5 7.2 2.9 6.3 3.8 1-0.8-0.4-3.3-5.4-5.8 1.5 0.3 5.8 2.9 5.5 4 1-0.7 0.1-3-0.6-3.4-1.1-0.8-2.1-1.8-4.6-2.7m-19 4.9c-0.4 2-0.5 8.1 1 12"/>
  <path class="cls-5" d="m69.6 126.6 0.3 11.3"/>
  <path class="cls-2" d="m70.8 135.9h1.8m-3.2-28.9 2-0.1m-17.4-9.8 17.9-1.2m3.5-18.5c-1.9 2.7-7 4.1-9.8 3.2m-1.6-3c3.6 1.4 9.1 0.3 11-3.6"/>
  <path class="cls-4" d="m62.1 87-1.7 1.4c-1 0.6-1 0.1-1-0.7-0.5-4.6 0.2-11.7 1-13.8m15-0.5 1.5 11.7c0.5 4.8 3 16.9 4.3 26m-7.1 10.6c1.5 0.3 1 2.3-0.5 1.9-0.9-0.5-0.6-2 0.5-1.9z"/>
  <path class="cls-6" d="m67.6 86.9 1 26.3"/>
  <path class="cls-2" d="m68.4 93h2"/>
  <path class="cls-7" d="m53.6 95.6 15.4-1"/>
  <path class="cls-6" d="m67.6 94.6 1.8-0.2"/>
  <path class="cls-7" d="m70.4 94.4h1.2"/>
  <path class="cls-2" d="m78.4 94.1 13.7-2m-7.2 40.8c-2.4 0.7-7.2 1.7-10.9 1.6"/>
  <path class="cls-4" d="m82.8 119 3.9 20.9"/>
  <path class="cls-6" d="m86.5 117.7 3.7 20.9"/>
  <path class="cls-2" d="m86.5 125.5c1.2 0.1 1 2-0.3 1.5-0.6-0.4-0.3-1.6 0.3-1.5z"/>
  <path class="cls-8" d="m91.4 88.7c3.1 12.2 8.5 41.8 11 51.2"/>
  <path class="cls-2" d="m78.6 74.5c6.5 1.9 11 3.1 18.9 10.5"/>
  <path class="cls-10" d="m93 66.6c0.5 0.8 1.7 2.3 1.9 2.5 0.1-0.6 5.8-3.1 6.6-2.7l-1-2-6.4 2.5-1.1-0.3z"/>
  <path class="cls-4" d="m94.2 66.6c-2.7-3.1-5.7-12.6-3.1-12.7 1.5 0.1 2.9 2.2 4 3.5 0.9 1.1 1.1 2.6 0.8 5.5 0.2 0.7 0.2 1 0.2 1-0.7-2.3 0-6.2 0.9-7 1.4 0.6 2.6-1.9 3.2-3.4"/>
  <path class="cls-4" d="m97 56-3-0.9c-1-1.6 1.5-5.7 2.4-5.6l-0.2-0.5c0.2-6.5 0.7-7.6-0.7-6.9-1 0.9-1.5 5.4-3 11.9l1.1 1h0.4"/>
  <path class="cls-4" d="m99 50c-2-0.6-4.6 4.6-3.4 5.6 1.5 1.4 1-2.7 2.6-4.1s3.8-1.9 4-0.4c0.7 2.9-1.1 11-2.6 13.3m-7.4-6.4c0.8 1 2.3 1.9 3.4 1.4"/>
  <path class="cls-2" d="m94.9 75.6c1.7 7.4 7 24 6.8 24"/>
  <path class="cls-4" d="m95 69.1c4.7-1.6 6.5-3.1 7.4-2.7 3 0.6 5.1 6.6 6.7 9.6 4.9 11 10.8 21.6 10.6 31.5-0.6 5.5-4.3 7.1-9.1 7.1-2.9 0-7.1-1-9.2-1.6-2-0.6-5-2.1-5-2.4"/>
  <path class="cls-7" d="m95.4 75.6 10.6-4.7"/>
  <path class="cls-2" d="m99.4 100.4c-1.2-3.4-0.7-6.4 0.2-8.7"/>
  <path class="cls-4" d="m76.1 71.1 0.4-1.2-1.5-1 0.1-1.9 0.5-0.1m0.3 5 1.7 0.6 0.5 1.5-1.4-0.6-0.8-1.5z"/>
  <path class="cls-2" d="m71.4 67.9 1.2 1.7c1.3 2 2.5 2.9 2.5 4.4"/>
  <path class="cls-4" d="m75 71.6c2.7 1 4.1 2.8 8.6 10 0.4 1 0.6 0.8-1 0.6-3.9-0.1-5 1.2-5.6 3.7"/>
  <path class="cls-6" d="m78.9 83.1 2.5 10.4"/>
  <path class="cls-2" d="m80 90.6c1 0.3 0.6 2-0.6 1.3-0.7-0.4-0.4-1.5 0.6-1.3z"/>
  <path class="cls-6" d="m81.5 92.4 9.6-1.5"/>
  <path class="cls-6" d="m81.9 94.4 2.6 13.6"/>
  <path class="cls-2" d="m82.6 104.6c1 0 0.9 2-0.5 1.6-0.6-0.3-0.5-1.8 0.5-1.6z"/>
  <path class="cls-9" d="m92 80.9c-0.5 0.1-1.1 2.5-1 3.5"/>
  <path class="cls-4" d="m71.8 45.9c1.7-0.3 2.2 1.6 1.2 1.5m-6.5-2.5c1-1 3.7-0.9 4.4 0.6"/>
  <path class="cls-8" d="m63 45.4c0.5-0.9 2.1-1.3 2.9-0.8l-2.9 0.8z"/>
  <path class="cls-4" d="m59.9 46.9 1.2-1c0.8-0.4 1.5-0.3 2-0.3l-3.2 1.3z"/>
  <path class="cls-2" d="m57 50c-0.4-0.9 0.7-2.4 1.9-3l1-0.1m-4.3 7.2c-0.2-0.7 0-1.7 0.9-2.2l0.5-1.5m-1.5 7.7c-1-0.6-1-2.6 0.4-3.5l-0.4 3.5z"/>
  <path class="cls-4" d="m55.5 61.5c0-0.8 0.1-3.1 1.5-3.6l-1.5 3.6z"/>
  <path class="cls-2" d="m64.5 63.6c-1.5 1.4-4.4-0.2-3.9-3.2 0.3-2 2.5-2.9 3.3-1.4m2.2-4c-0.2-1.5-4.7 0.4-4.7 2.1 1.6-0.6 3.7-1.2 3.7-2.5"/>
  <path class="cls-8" d="m61.4 55.4c-1.8-0.4-3.3 1.7-3.4 3.2 0.4-0.2 2-0.1 3.5-2l-0.1-1.2z"/>
  <path class="cls-2" d="m60 57.1c-2.1 0.5-2.3 2.1-1.6 3.8m2-0.9c-1 0-2.4 1.1-2.4 2.6l3.1 1.9-0.7-4.5z"/>
  <path class="cls-8" d="m58.1 64-1.1 1.9c-0.5 1-0.1 2.6 0 2.7l2.4-2.7-1.3-1.9zm-1.1 4.6-0.4 1.9v2.5c0.8-0.8 2-1.1 2.3-1.9l0.5-2-0.8-2.2-1.6 1.7z"/>
  <path class="cls-8" d="m56.6 72.6-0.7 1.5c-0.5 1.4-0.3 2-0.3 2.8l2 0.5 2-1.5-0.2-1.8-1-2c-0.7 0.5-1.8 0-1.8 0.5z"/>
  <path class="cls-8" d="m55.9 76.1c-0.8 0.5-0.5 3.9 0 4l3.1-2.6 0.6-1.6c-0.9 0.7-2.9 1-3.7 0.2z"/>
  <path class="cls-4" d="m66.1 50.9c-1.6-1.3-6.1-0.4-6.2 2.6 2-0.5 3.1-1.6 4.2-1.4 1.8 0.3 2.8-0.4 2-1.2z"/>
  <path class="cls-8" d="m64 47.4c-2.5-0.8-5.6 0.7-6 3.6 1-0.3 2.6-1 3.5-1 1.9-0.4 2.5-0.4 3.5-0.4 1.6 0.4 2.9-0.2 2.5-0.7s-2-1.3-3.5-1.5z"/>
  <path class="cls-2" d="m64.4 44.9h1.7c1.4 0 3.3 1.5 3.5 2.7-1-0.2-2.1-1.5-3.2-1.5l-2-1.2zm-3.5 14.1c-1.5-0.1-1.9 1.1-1.8 3.6l2 1.4c1.3 1 2.6 0.6 1.4 1.9 0.9 0.7 1.1 2.5 0.4 2.5 1.1 0.5 0.7 3 0.5 4 0.7 0.6 0.3 2.6 0.5 3.5 0.6 0.7 0.7 3-0.5 2.1 1.2 0.5 1.5 2.1 1.5 2.6 1 2.8 1.5 5.3 0.2 3.8-0.7-2.4-2.2-5.8-2-8.4l-1.7-3.1-1.3-2.9-1.1-3.4 0.1-4.2m-2.1-3.4-1.4 0.4c-1.1 1.7 1 2.6 0.8 4.1 0.7-0.6 1.7-1.9 1.6-2.8l-1-1.7z"/>
  <path class="cls-2" d="m55.5 63.1c-0.5 0.4-1.1 1.9-0.6 2.4l1 1.4-0.3 1.5c0.9-0.9 1.3-4-0.1-5.3z"/>
  <path class="cls-4" d="m54.6 66.1c-1.6 1.9 0.9 3.8 1 3.9l0.3-1.4c0.5-1-0.9-2-1.3-2.5z"/>
  <path class="cls-4" d="m54.4 67.6c-1.3 1.8 0.2 3.3 0.5 3.9l0.6-1.5c0.4-1-0.5-1.5-1.1-2.4z"/>
  <path class="cls-4" d="m53.6 70.6c-1 1.9 0.1 2.8 0.3 3.5 1.2-0.1 1.2-3.2-0.3-3.5z"/>
  <path class="cls-4" d="m52.7 73.5 0.3 1.5 0.9 1c1-0.6 0.6-2.5-1.2-2.5z"/>
  <path class="cls-4" d="m52.5 75.4-0.4 1.2 0.9 1.4c1-0.5 1.1-2-0.5-2.6z"/>
  <path class="cls-4" d="m51.9 77.5c-0.9 1 0.1 2.5 0.6 2.5 1.4-1 0.4-2-0.6-2.5z"/>
  <path class="cls-4" d="m51.5 80.5c-1 1.6 0.5 2.5 1 2.5 0.1-0.5 1-2-1-2.5z"/>
  <path class="cls-4" d="m51.1 83.5c-0.5 1.4-0.1 3.1 0.4 2.6l1.2-1.5-1.6-1.1zm7.4-34.5c-2.1 0.9-0.6 3 1 1.6m-3 5.4c-0.5-1.9 0-3.1 1.9-4.1l-1.9 4.1z"/>
  <path class="cls-2" d="m58 54.5c-0.9 0.1-1.9 2-1.1 3.2l1.7-1.6-0.6-1.6z"/>
  <path class="cls-4" d="m59.1 52-1.5 1.5v2.1c1.8-1 1.9-1 1.5-3.6z"/>
  <path class="cls-8" d="m60.6 50.9c-1.6 0.6-2 2.1-1.5 3l1.4-0.9 0.1-2.1z"/>
  <path class="cls-2" d="m63 50.6c-1.9 0-3 1.5-2.6 2.8 1.1-0.3 1.6-0.4 2-0.9l0.6-1.9z"/>
  <path class="cls-8" d="m64.6 50.6c-1.9 0-2.6 1.5-2.6 1.9h2l0.6-1.9z"/>
  <path class="cls-4" d="m66.1 50.9c-1.5-0.3-2.1 0.8-2.2 1.2 1.2 0.4 3 0 2.2-1.2z"/>
  <path class="cls-2" d="m73.4 47.6c1.7 0.9 4.6 8 4.5 11.9-0.3 5.5-3.3 8.1-8.9 8.4 1 1.6 3.1 1.6 3.1 1.7m1-17.5c0.8-0.6 2.3-0.7 2.3-0.2"/>
  <path d="m67.9 54c0.6-1.1 2.2-1.9 3.1-1.5 0.1 0.5-0.1 0.6-0.6 0.6s-1.4 0.4-1.8 1c-0.2 0.4-0.7 0.3-0.7-0.1zm4.8 5.6c0.9 1 2.4 1 2.7 0.4 0.5-0.6 0.7-0.4 0.5 0.1-0.8 1.5-3.9 0.5-3.4-0.2l0.2-0.3zm-2.7-4.7c0-1 1.5-0.8 1.1 0.7-0.5 0.5-1.2-0.1-1.1-0.7zm4.9-1c-0.4-1 1.2-1.3 0.7 0.2-0.2 0.4-0.7 0.3-0.7-0.2z"/>
  <path class="cls-4" d="m73.6 53.9 2.4 2.5c0.4 1-1.9 1.6-0.9 1.5"/>
  <path class="cls-2" d="m48.5 90.4c2 0.8 5.9 7.2 6.4 13"/>
  <path class="cls-4" d="m62 86.6c3-0.6 5.6-0.7 7.5 1.5 2.1 2.5 2.1 4 2.1 6.5l1.4 18.9m-10-27.9 1.5 5c1 3.4-1.6 0.9-1.9-1.7l-1.2-3.4-0.4-5.5-0.9-3.1 0.8-2.3 0.7 2 1.4 1.4 0.6 3.1-0.6 4.5z"/>
  <path class="cls-2" d="m68.4 81 2.6 2.9c0.4 0.5 0.4 0 1.5-3.9"/>
  <path class="cls-8" d="m60.5 67.1-1.1-2.1-0.4 1.6 0.4 2.5 1.5 2.5 1.1 1.4v-2.6l-1.5-3.3z"/>
  <path class="cls-8" d="m61.1 67.1-1-1.1-0.1 1.5 0.5 1.9 1.6 2.6 1.5 1.4c0.4-1.4 0-2.3 0-2.3l-2.5-4z"/>
  <path class="cls-8" d="m62.4 65.5-2-2.1-0.3 1.2 1.4 2"/>
  <path class="cls-8" d="m62.4 65-0.9 1.6 1 1.5 1-0.1-1.1-3zm-1.8 6.4-0.5 1.7 0.5 1.4 1.5 1.9h2.3l-1.8-2.4-2-2.6z"/>
  <path class="cls-8" d="m63.1 74-0.9 0.6 0.3 1.4 1.9 0.9-0.3-1.5-1-1.4zm-3.1 2-0.1 1.6 0.6 1.3 1.6 1.1 0.4-1.9-2.5-2.1z"/>
  <path class="cls-8" d="m60.4 78.4v1.5l0.7 1.1 1.3 0.6v-1.6l-2-1.6z"/>
  <path class="cls-8" d="m60.9 80.6-0.2 1 0.3 0.8 1.5 0.6v-1.4l-1.6-1z"/>
  <path class="cls-8" d="m61.1 82.9v1l0.4 0.6 1.2 0.5-0.1-1.1-1.5-1z"/>
  <path class="cls-8" d="m61.4 84.6 0.1 1 0.5 0.9 1.2 0.4-0.2-1.3-1.6-1z"/>
  <path class="cls-8" d="m61.9 87 0.5 1.5 0.6 0.4 1 0.1v-1.1l-2.1-0.9z"/>
  <path class="cls-8" d="m62.4 89 0.3 0.9 0.8 0.6h0.9l-0.4-1-1.6-0.5z"/>
  <path class="cls-8" d="m63 90v0.9l1.1 1.2 0.4-0.4-0.4-1.2-1.1-0.5zm-2.1-42.6-0.9 1.6 2-0.1 1-1.4-2.1-0.1z"/>
  <path class="cls-8" d="m63 47.5-1.4 1.5h2l1.3-1.4-1.9-0.1z"/>
  <path class="cls-8" d="m64.4 47.6-0.8 1.3 1.4 0.1 2.1-0.6-2.7-0.8zm-0.4-2.6-0.9 1h1.9l0.5-1h-1.5z"/>
  <path class="cls-8" d="m65 45-0.6 1 1.7 0.4 1-0.8-2.1-0.6z"/>
  <path class="cls-8" d="m66.4 45.4-0.5 0.7 1.5 0.5 1-0.2-2-1z"/>
  <path class="cls-8" d="m68 46.1-0.5 0.4 1.1 1h1l-1.6-1.4z"/>
  <path class="cls-11" d="m70.2 45.1 0.5 1.5 1.4 0.6v-1.2zm1.9 1.4 0.5 1 1 0.1-0.2-0.6z"/>
  <path class="cls-2" d="m72.4 67.7 1.2-0.1 0.8 2.3 1.6 1.1 0.6 1.5"/>
</svg>
